G04 #@! TF.GenerationSoftware,KiCad,Pcbnew,(5.1.4)-1*
G04 #@! TF.CreationDate,2019-10-24T16:07:41-04:00*
G04 #@! TF.ProjectId,XC9536XL,58433935-3336-4584-9c2e-6b696361645f,B*
G04 #@! TF.SameCoordinates,Original*
G04 #@! TF.FileFunction,Legend,Top*
G04 #@! TF.FilePolarity,Positive*
%FSLAX46Y46*%
G04 Gerber Fmt 4.6, Leading zero omitted, Abs format (unit mm)*
G04 Created by KiCad (PCBNEW (5.1.4)-1) date 2019-10-24 16:07:41*
%MOMM*%
%LPD*%
G04 APERTURE LIST*
%ADD10C,0.150000*%
%ADD11C,0.120000*%
G04 APERTURE END LIST*
D10*
X70663714Y-57466714D02*
X70363714Y-57466714D01*
X70363714Y-57938142D02*
X70363714Y-57038142D01*
X70792285Y-57038142D01*
X71435142Y-57466714D02*
X71563714Y-57509571D01*
X71606571Y-57552428D01*
X71649428Y-57638142D01*
X71649428Y-57766714D01*
X71606571Y-57852428D01*
X71563714Y-57895285D01*
X71478000Y-57938142D01*
X71135142Y-57938142D01*
X71135142Y-57038142D01*
X71435142Y-57038142D01*
X71520857Y-57081000D01*
X71563714Y-57123857D01*
X71606571Y-57209571D01*
X71606571Y-57295285D01*
X71563714Y-57381000D01*
X71520857Y-57423857D01*
X71435142Y-57466714D01*
X71135142Y-57466714D01*
X72506571Y-57938142D02*
X71992285Y-57938142D01*
X72249428Y-57938142D02*
X72249428Y-57038142D01*
X72163714Y-57166714D01*
X72078000Y-57252428D01*
X71992285Y-57295285D01*
X72892285Y-57852428D02*
X72935142Y-57895285D01*
X72892285Y-57938142D01*
X72849428Y-57895285D01*
X72892285Y-57852428D01*
X72892285Y-57938142D01*
X85971142Y-36888000D02*
X85885428Y-36845142D01*
X85756857Y-36845142D01*
X85628285Y-36888000D01*
X85542571Y-36973714D01*
X85499714Y-37059428D01*
X85456857Y-37230857D01*
X85456857Y-37359428D01*
X85499714Y-37530857D01*
X85542571Y-37616571D01*
X85628285Y-37702285D01*
X85756857Y-37745142D01*
X85842571Y-37745142D01*
X85971142Y-37702285D01*
X86014000Y-37659428D01*
X86014000Y-37359428D01*
X85842571Y-37359428D01*
X86356857Y-37702285D02*
X86485428Y-37745142D01*
X86699714Y-37745142D01*
X86785428Y-37702285D01*
X86828285Y-37659428D01*
X86871142Y-37573714D01*
X86871142Y-37488000D01*
X86828285Y-37402285D01*
X86785428Y-37359428D01*
X86699714Y-37316571D01*
X86528285Y-37273714D01*
X86442571Y-37230857D01*
X86399714Y-37188000D01*
X86356857Y-37102285D01*
X86356857Y-37016571D01*
X86399714Y-36930857D01*
X86442571Y-36888000D01*
X86528285Y-36845142D01*
X86742571Y-36845142D01*
X86871142Y-36888000D01*
X87771142Y-37745142D02*
X87471142Y-37316571D01*
X87256857Y-37745142D02*
X87256857Y-36845142D01*
X87599714Y-36845142D01*
X87685428Y-36888000D01*
X87728285Y-36930857D01*
X87771142Y-37016571D01*
X87771142Y-37145142D01*
X87728285Y-37230857D01*
X87685428Y-37273714D01*
X87599714Y-37316571D01*
X87256857Y-37316571D01*
X82601714Y-36888000D02*
X82516000Y-36845142D01*
X82387428Y-36845142D01*
X82258857Y-36888000D01*
X82173142Y-36973714D01*
X82130285Y-37059428D01*
X82087428Y-37230857D01*
X82087428Y-37359428D01*
X82130285Y-37530857D01*
X82173142Y-37616571D01*
X82258857Y-37702285D01*
X82387428Y-37745142D01*
X82473142Y-37745142D01*
X82601714Y-37702285D01*
X82644571Y-37659428D01*
X82644571Y-37359428D01*
X82473142Y-37359428D01*
X82901714Y-36845142D02*
X83416000Y-36845142D01*
X83158857Y-37745142D02*
X83158857Y-36845142D01*
X83673142Y-37702285D02*
X83801714Y-37745142D01*
X84016000Y-37745142D01*
X84101714Y-37702285D01*
X84144571Y-37659428D01*
X84187428Y-37573714D01*
X84187428Y-37488000D01*
X84144571Y-37402285D01*
X84101714Y-37359428D01*
X84016000Y-37316571D01*
X83844571Y-37273714D01*
X83758857Y-37230857D01*
X83716000Y-37188000D01*
X83673142Y-37102285D01*
X83673142Y-37016571D01*
X83716000Y-36930857D01*
X83758857Y-36888000D01*
X83844571Y-36845142D01*
X84058857Y-36845142D01*
X84187428Y-36888000D01*
X84530285Y-36930857D02*
X84573142Y-36888000D01*
X84658857Y-36845142D01*
X84873142Y-36845142D01*
X84958857Y-36888000D01*
X85001714Y-36930857D01*
X85044571Y-37016571D01*
X85044571Y-37102285D01*
X85001714Y-37230857D01*
X84487428Y-37745142D01*
X85044571Y-37745142D01*
X77775714Y-36888000D02*
X77690000Y-36845142D01*
X77561428Y-36845142D01*
X77432857Y-36888000D01*
X77347142Y-36973714D01*
X77304285Y-37059428D01*
X77261428Y-37230857D01*
X77261428Y-37359428D01*
X77304285Y-37530857D01*
X77347142Y-37616571D01*
X77432857Y-37702285D01*
X77561428Y-37745142D01*
X77647142Y-37745142D01*
X77775714Y-37702285D01*
X77818571Y-37659428D01*
X77818571Y-37359428D01*
X77647142Y-37359428D01*
X78075714Y-36845142D02*
X78590000Y-36845142D01*
X78332857Y-37745142D02*
X78332857Y-36845142D01*
X78847142Y-37702285D02*
X78975714Y-37745142D01*
X79190000Y-37745142D01*
X79275714Y-37702285D01*
X79318571Y-37659428D01*
X79361428Y-37573714D01*
X79361428Y-37488000D01*
X79318571Y-37402285D01*
X79275714Y-37359428D01*
X79190000Y-37316571D01*
X79018571Y-37273714D01*
X78932857Y-37230857D01*
X78890000Y-37188000D01*
X78847142Y-37102285D01*
X78847142Y-37016571D01*
X78890000Y-36930857D01*
X78932857Y-36888000D01*
X79018571Y-36845142D01*
X79232857Y-36845142D01*
X79361428Y-36888000D01*
X80218571Y-37745142D02*
X79704285Y-37745142D01*
X79961428Y-37745142D02*
X79961428Y-36845142D01*
X79875714Y-36973714D01*
X79790000Y-37059428D01*
X79704285Y-37102285D01*
X87807142Y-53906000D02*
X87721428Y-53863142D01*
X87592857Y-53863142D01*
X87464285Y-53906000D01*
X87378571Y-53991714D01*
X87335714Y-54077428D01*
X87292857Y-54248857D01*
X87292857Y-54377428D01*
X87335714Y-54548857D01*
X87378571Y-54634571D01*
X87464285Y-54720285D01*
X87592857Y-54763142D01*
X87678571Y-54763142D01*
X87807142Y-54720285D01*
X87850000Y-54677428D01*
X87850000Y-54377428D01*
X87678571Y-54377428D01*
X88750000Y-54677428D02*
X88707142Y-54720285D01*
X88578571Y-54763142D01*
X88492857Y-54763142D01*
X88364285Y-54720285D01*
X88278571Y-54634571D01*
X88235714Y-54548857D01*
X88192857Y-54377428D01*
X88192857Y-54248857D01*
X88235714Y-54077428D01*
X88278571Y-53991714D01*
X88364285Y-53906000D01*
X88492857Y-53863142D01*
X88578571Y-53863142D01*
X88707142Y-53906000D01*
X88750000Y-53948857D01*
X89135714Y-54763142D02*
X89135714Y-53863142D01*
X89650000Y-54763142D02*
X89264285Y-54248857D01*
X89650000Y-53863142D02*
X89135714Y-54377428D01*
X89950000Y-53863142D02*
X90507142Y-53863142D01*
X90207142Y-54206000D01*
X90335714Y-54206000D01*
X90421428Y-54248857D01*
X90464285Y-54291714D01*
X90507142Y-54377428D01*
X90507142Y-54591714D01*
X90464285Y-54677428D01*
X90421428Y-54720285D01*
X90335714Y-54763142D01*
X90078571Y-54763142D01*
X89992857Y-54720285D01*
X89950000Y-54677428D01*
X82727142Y-53906000D02*
X82641428Y-53863142D01*
X82512857Y-53863142D01*
X82384285Y-53906000D01*
X82298571Y-53991714D01*
X82255714Y-54077428D01*
X82212857Y-54248857D01*
X82212857Y-54377428D01*
X82255714Y-54548857D01*
X82298571Y-54634571D01*
X82384285Y-54720285D01*
X82512857Y-54763142D01*
X82598571Y-54763142D01*
X82727142Y-54720285D01*
X82770000Y-54677428D01*
X82770000Y-54377428D01*
X82598571Y-54377428D01*
X83670000Y-54677428D02*
X83627142Y-54720285D01*
X83498571Y-54763142D01*
X83412857Y-54763142D01*
X83284285Y-54720285D01*
X83198571Y-54634571D01*
X83155714Y-54548857D01*
X83112857Y-54377428D01*
X83112857Y-54248857D01*
X83155714Y-54077428D01*
X83198571Y-53991714D01*
X83284285Y-53906000D01*
X83412857Y-53863142D01*
X83498571Y-53863142D01*
X83627142Y-53906000D01*
X83670000Y-53948857D01*
X84055714Y-54763142D02*
X84055714Y-53863142D01*
X84570000Y-54763142D02*
X84184285Y-54248857D01*
X84570000Y-53863142D02*
X84055714Y-54377428D01*
X84912857Y-53948857D02*
X84955714Y-53906000D01*
X85041428Y-53863142D01*
X85255714Y-53863142D01*
X85341428Y-53906000D01*
X85384285Y-53948857D01*
X85427142Y-54034571D01*
X85427142Y-54120285D01*
X85384285Y-54248857D01*
X84870000Y-54763142D01*
X85427142Y-54763142D01*
X77647142Y-53906000D02*
X77561428Y-53863142D01*
X77432857Y-53863142D01*
X77304285Y-53906000D01*
X77218571Y-53991714D01*
X77175714Y-54077428D01*
X77132857Y-54248857D01*
X77132857Y-54377428D01*
X77175714Y-54548857D01*
X77218571Y-54634571D01*
X77304285Y-54720285D01*
X77432857Y-54763142D01*
X77518571Y-54763142D01*
X77647142Y-54720285D01*
X77690000Y-54677428D01*
X77690000Y-54377428D01*
X77518571Y-54377428D01*
X78590000Y-54677428D02*
X78547142Y-54720285D01*
X78418571Y-54763142D01*
X78332857Y-54763142D01*
X78204285Y-54720285D01*
X78118571Y-54634571D01*
X78075714Y-54548857D01*
X78032857Y-54377428D01*
X78032857Y-54248857D01*
X78075714Y-54077428D01*
X78118571Y-53991714D01*
X78204285Y-53906000D01*
X78332857Y-53863142D01*
X78418571Y-53863142D01*
X78547142Y-53906000D01*
X78590000Y-53948857D01*
X78975714Y-54763142D02*
X78975714Y-53863142D01*
X79490000Y-54763142D02*
X79104285Y-54248857D01*
X79490000Y-53863142D02*
X78975714Y-54377428D01*
X80347142Y-54763142D02*
X79832857Y-54763142D01*
X80090000Y-54763142D02*
X80090000Y-53863142D01*
X80004285Y-53991714D01*
X79918571Y-54077428D01*
X79832857Y-54120285D01*
X70663714Y-33844714D02*
X70363714Y-33844714D01*
X70363714Y-34316142D02*
X70363714Y-33416142D01*
X70792285Y-33416142D01*
X71435142Y-33844714D02*
X71563714Y-33887571D01*
X71606571Y-33930428D01*
X71649428Y-34016142D01*
X71649428Y-34144714D01*
X71606571Y-34230428D01*
X71563714Y-34273285D01*
X71478000Y-34316142D01*
X71135142Y-34316142D01*
X71135142Y-33416142D01*
X71435142Y-33416142D01*
X71520857Y-33459000D01*
X71563714Y-33501857D01*
X71606571Y-33587571D01*
X71606571Y-33673285D01*
X71563714Y-33759000D01*
X71520857Y-33801857D01*
X71435142Y-33844714D01*
X71135142Y-33844714D01*
X71992285Y-33501857D02*
X72035142Y-33459000D01*
X72120857Y-33416142D01*
X72335142Y-33416142D01*
X72420857Y-33459000D01*
X72463714Y-33501857D01*
X72506571Y-33587571D01*
X72506571Y-33673285D01*
X72463714Y-33801857D01*
X71949428Y-34316142D01*
X72506571Y-34316142D01*
X72892285Y-34230428D02*
X72935142Y-34273285D01*
X72892285Y-34316142D01*
X72849428Y-34273285D01*
X72892285Y-34230428D01*
X72892285Y-34316142D01*
X70434285Y-53398000D02*
X70348571Y-53355142D01*
X70220000Y-53355142D01*
X70091428Y-53398000D01*
X70005714Y-53483714D01*
X69962857Y-53569428D01*
X69920000Y-53740857D01*
X69920000Y-53869428D01*
X69962857Y-54040857D01*
X70005714Y-54126571D01*
X70091428Y-54212285D01*
X70220000Y-54255142D01*
X70305714Y-54255142D01*
X70434285Y-54212285D01*
X70477142Y-54169428D01*
X70477142Y-53869428D01*
X70305714Y-53869428D01*
X70862857Y-54255142D02*
X70862857Y-53355142D01*
X71377142Y-54255142D01*
X71377142Y-53355142D01*
X71805714Y-54255142D02*
X71805714Y-53355142D01*
X72020000Y-53355142D01*
X72148571Y-53398000D01*
X72234285Y-53483714D01*
X72277142Y-53569428D01*
X72320000Y-53740857D01*
X72320000Y-53869428D01*
X72277142Y-54040857D01*
X72234285Y-54126571D01*
X72148571Y-54212285D01*
X72020000Y-54255142D01*
X71805714Y-54255142D01*
X69962857Y-37464285D02*
X70648571Y-37464285D01*
X70305714Y-37807142D02*
X70305714Y-37121428D01*
X71505714Y-36907142D02*
X71077142Y-36907142D01*
X71034285Y-37335714D01*
X71077142Y-37292857D01*
X71162857Y-37250000D01*
X71377142Y-37250000D01*
X71462857Y-37292857D01*
X71505714Y-37335714D01*
X71548571Y-37421428D01*
X71548571Y-37635714D01*
X71505714Y-37721428D01*
X71462857Y-37764285D01*
X71377142Y-37807142D01*
X71162857Y-37807142D01*
X71077142Y-37764285D01*
X71034285Y-37721428D01*
X71805714Y-36907142D02*
X72105714Y-37807142D01*
X72405714Y-36907142D01*
X86531428Y-57038142D02*
X86360000Y-57038142D01*
X86274285Y-57081000D01*
X86231428Y-57123857D01*
X86145714Y-57252428D01*
X86102857Y-57423857D01*
X86102857Y-57766714D01*
X86145714Y-57852428D01*
X86188571Y-57895285D01*
X86274285Y-57938142D01*
X86445714Y-57938142D01*
X86531428Y-57895285D01*
X86574285Y-57852428D01*
X86617142Y-57766714D01*
X86617142Y-57552428D01*
X86574285Y-57466714D01*
X86531428Y-57423857D01*
X86445714Y-57381000D01*
X86274285Y-57381000D01*
X86188571Y-57423857D01*
X86145714Y-57466714D01*
X86102857Y-57552428D01*
X84034285Y-57038142D02*
X83605714Y-57038142D01*
X83562857Y-57466714D01*
X83605714Y-57423857D01*
X83691428Y-57381000D01*
X83905714Y-57381000D01*
X83991428Y-57423857D01*
X84034285Y-57466714D01*
X84077142Y-57552428D01*
X84077142Y-57766714D01*
X84034285Y-57852428D01*
X83991428Y-57895285D01*
X83905714Y-57938142D01*
X83691428Y-57938142D01*
X83605714Y-57895285D01*
X83562857Y-57852428D01*
X73917142Y-57938142D02*
X73402857Y-57938142D01*
X73660000Y-57938142D02*
X73660000Y-57038142D01*
X73574285Y-57166714D01*
X73488571Y-57252428D01*
X73402857Y-57295285D01*
X103968571Y-57938142D02*
X103454285Y-57938142D01*
X103711428Y-57938142D02*
X103711428Y-57038142D01*
X103625714Y-57166714D01*
X103540000Y-57252428D01*
X103454285Y-57295285D01*
X104268571Y-57038142D02*
X104825714Y-57038142D01*
X104525714Y-57381000D01*
X104654285Y-57381000D01*
X104740000Y-57423857D01*
X104782857Y-57466714D01*
X104825714Y-57552428D01*
X104825714Y-57766714D01*
X104782857Y-57852428D01*
X104740000Y-57895285D01*
X104654285Y-57938142D01*
X104397142Y-57938142D01*
X104311428Y-57895285D01*
X104268571Y-57852428D01*
X88600000Y-57038142D02*
X89200000Y-57038142D01*
X88814285Y-57938142D01*
X114128571Y-57938142D02*
X113614285Y-57938142D01*
X113871428Y-57938142D02*
X113871428Y-57038142D01*
X113785714Y-57166714D01*
X113700000Y-57252428D01*
X113614285Y-57295285D01*
X114428571Y-57038142D02*
X115028571Y-57038142D01*
X114642857Y-57938142D01*
X101428571Y-57938142D02*
X100914285Y-57938142D01*
X101171428Y-57938142D02*
X101171428Y-57038142D01*
X101085714Y-57166714D01*
X101000000Y-57252428D01*
X100914285Y-57295285D01*
X101771428Y-57123857D02*
X101814285Y-57081000D01*
X101900000Y-57038142D01*
X102114285Y-57038142D01*
X102200000Y-57081000D01*
X102242857Y-57123857D01*
X102285714Y-57209571D01*
X102285714Y-57295285D01*
X102242857Y-57423857D01*
X101728571Y-57938142D01*
X102285714Y-57938142D01*
X96348571Y-57938142D02*
X95834285Y-57938142D01*
X96091428Y-57938142D02*
X96091428Y-57038142D01*
X96005714Y-57166714D01*
X95920000Y-57252428D01*
X95834285Y-57295285D01*
X96905714Y-57038142D02*
X96991428Y-57038142D01*
X97077142Y-57081000D01*
X97120000Y-57123857D01*
X97162857Y-57209571D01*
X97205714Y-57381000D01*
X97205714Y-57595285D01*
X97162857Y-57766714D01*
X97120000Y-57852428D01*
X97077142Y-57895285D01*
X96991428Y-57938142D01*
X96905714Y-57938142D01*
X96820000Y-57895285D01*
X96777142Y-57852428D01*
X96734285Y-57766714D01*
X96691428Y-57595285D01*
X96691428Y-57381000D01*
X96734285Y-57209571D01*
X96777142Y-57123857D01*
X96820000Y-57081000D01*
X96905714Y-57038142D01*
X111588571Y-57938142D02*
X111074285Y-57938142D01*
X111331428Y-57938142D02*
X111331428Y-57038142D01*
X111245714Y-57166714D01*
X111160000Y-57252428D01*
X111074285Y-57295285D01*
X112360000Y-57038142D02*
X112188571Y-57038142D01*
X112102857Y-57081000D01*
X112060000Y-57123857D01*
X111974285Y-57252428D01*
X111931428Y-57423857D01*
X111931428Y-57766714D01*
X111974285Y-57852428D01*
X112017142Y-57895285D01*
X112102857Y-57938142D01*
X112274285Y-57938142D01*
X112360000Y-57895285D01*
X112402857Y-57852428D01*
X112445714Y-57766714D01*
X112445714Y-57552428D01*
X112402857Y-57466714D01*
X112360000Y-57423857D01*
X112274285Y-57381000D01*
X112102857Y-57381000D01*
X112017142Y-57423857D01*
X111974285Y-57466714D01*
X111931428Y-57552428D01*
X106508571Y-57938142D02*
X105994285Y-57938142D01*
X106251428Y-57938142D02*
X106251428Y-57038142D01*
X106165714Y-57166714D01*
X106080000Y-57252428D01*
X105994285Y-57295285D01*
X107280000Y-57338142D02*
X107280000Y-57938142D01*
X107065714Y-56995285D02*
X106851428Y-57638142D01*
X107408571Y-57638142D01*
X109048571Y-57938142D02*
X108534285Y-57938142D01*
X108791428Y-57938142D02*
X108791428Y-57038142D01*
X108705714Y-57166714D01*
X108620000Y-57252428D01*
X108534285Y-57295285D01*
X109862857Y-57038142D02*
X109434285Y-57038142D01*
X109391428Y-57466714D01*
X109434285Y-57423857D01*
X109520000Y-57381000D01*
X109734285Y-57381000D01*
X109820000Y-57423857D01*
X109862857Y-57466714D01*
X109905714Y-57552428D01*
X109905714Y-57766714D01*
X109862857Y-57852428D01*
X109820000Y-57895285D01*
X109734285Y-57938142D01*
X109520000Y-57938142D01*
X109434285Y-57895285D01*
X109391428Y-57852428D01*
X98888571Y-57938142D02*
X98374285Y-57938142D01*
X98631428Y-57938142D02*
X98631428Y-57038142D01*
X98545714Y-57166714D01*
X98460000Y-57252428D01*
X98374285Y-57295285D01*
X99745714Y-57938142D02*
X99231428Y-57938142D01*
X99488571Y-57938142D02*
X99488571Y-57038142D01*
X99402857Y-57166714D01*
X99317142Y-57252428D01*
X99231428Y-57295285D01*
X93808571Y-57938142D02*
X93980000Y-57938142D01*
X94065714Y-57895285D01*
X94108571Y-57852428D01*
X94194285Y-57723857D01*
X94237142Y-57552428D01*
X94237142Y-57209571D01*
X94194285Y-57123857D01*
X94151428Y-57081000D01*
X94065714Y-57038142D01*
X93894285Y-57038142D01*
X93808571Y-57081000D01*
X93765714Y-57123857D01*
X93722857Y-57209571D01*
X93722857Y-57423857D01*
X93765714Y-57509571D01*
X93808571Y-57552428D01*
X93894285Y-57595285D01*
X94065714Y-57595285D01*
X94151428Y-57552428D01*
X94194285Y-57509571D01*
X94237142Y-57423857D01*
X91354285Y-57423857D02*
X91268571Y-57381000D01*
X91225714Y-57338142D01*
X91182857Y-57252428D01*
X91182857Y-57209571D01*
X91225714Y-57123857D01*
X91268571Y-57081000D01*
X91354285Y-57038142D01*
X91525714Y-57038142D01*
X91611428Y-57081000D01*
X91654285Y-57123857D01*
X91697142Y-57209571D01*
X91697142Y-57252428D01*
X91654285Y-57338142D01*
X91611428Y-57381000D01*
X91525714Y-57423857D01*
X91354285Y-57423857D01*
X91268571Y-57466714D01*
X91225714Y-57509571D01*
X91182857Y-57595285D01*
X91182857Y-57766714D01*
X91225714Y-57852428D01*
X91268571Y-57895285D01*
X91354285Y-57938142D01*
X91525714Y-57938142D01*
X91611428Y-57895285D01*
X91654285Y-57852428D01*
X91697142Y-57766714D01*
X91697142Y-57595285D01*
X91654285Y-57509571D01*
X91611428Y-57466714D01*
X91525714Y-57423857D01*
X81451428Y-57338142D02*
X81451428Y-57938142D01*
X81237142Y-56995285D02*
X81022857Y-57638142D01*
X81580000Y-57638142D01*
X75942857Y-57123857D02*
X75985714Y-57081000D01*
X76071428Y-57038142D01*
X76285714Y-57038142D01*
X76371428Y-57081000D01*
X76414285Y-57123857D01*
X76457142Y-57209571D01*
X76457142Y-57295285D01*
X76414285Y-57423857D01*
X75900000Y-57938142D01*
X76457142Y-57938142D01*
X78440000Y-57038142D02*
X78997142Y-57038142D01*
X78697142Y-57381000D01*
X78825714Y-57381000D01*
X78911428Y-57423857D01*
X78954285Y-57466714D01*
X78997142Y-57552428D01*
X78997142Y-57766714D01*
X78954285Y-57852428D01*
X78911428Y-57895285D01*
X78825714Y-57938142D01*
X78568571Y-57938142D01*
X78482857Y-57895285D01*
X78440000Y-57852428D01*
X114128571Y-34316142D02*
X113614285Y-34316142D01*
X113871428Y-34316142D02*
X113871428Y-33416142D01*
X113785714Y-33544714D01*
X113700000Y-33630428D01*
X113614285Y-33673285D01*
X114428571Y-33416142D02*
X115028571Y-33416142D01*
X114642857Y-34316142D01*
X111588571Y-34316142D02*
X111074285Y-34316142D01*
X111331428Y-34316142D02*
X111331428Y-33416142D01*
X111245714Y-33544714D01*
X111160000Y-33630428D01*
X111074285Y-33673285D01*
X112360000Y-33416142D02*
X112188571Y-33416142D01*
X112102857Y-33459000D01*
X112060000Y-33501857D01*
X111974285Y-33630428D01*
X111931428Y-33801857D01*
X111931428Y-34144714D01*
X111974285Y-34230428D01*
X112017142Y-34273285D01*
X112102857Y-34316142D01*
X112274285Y-34316142D01*
X112360000Y-34273285D01*
X112402857Y-34230428D01*
X112445714Y-34144714D01*
X112445714Y-33930428D01*
X112402857Y-33844714D01*
X112360000Y-33801857D01*
X112274285Y-33759000D01*
X112102857Y-33759000D01*
X112017142Y-33801857D01*
X111974285Y-33844714D01*
X111931428Y-33930428D01*
X109048571Y-34316142D02*
X108534285Y-34316142D01*
X108791428Y-34316142D02*
X108791428Y-33416142D01*
X108705714Y-33544714D01*
X108620000Y-33630428D01*
X108534285Y-33673285D01*
X109862857Y-33416142D02*
X109434285Y-33416142D01*
X109391428Y-33844714D01*
X109434285Y-33801857D01*
X109520000Y-33759000D01*
X109734285Y-33759000D01*
X109820000Y-33801857D01*
X109862857Y-33844714D01*
X109905714Y-33930428D01*
X109905714Y-34144714D01*
X109862857Y-34230428D01*
X109820000Y-34273285D01*
X109734285Y-34316142D01*
X109520000Y-34316142D01*
X109434285Y-34273285D01*
X109391428Y-34230428D01*
X106508571Y-34316142D02*
X105994285Y-34316142D01*
X106251428Y-34316142D02*
X106251428Y-33416142D01*
X106165714Y-33544714D01*
X106080000Y-33630428D01*
X105994285Y-33673285D01*
X107280000Y-33716142D02*
X107280000Y-34316142D01*
X107065714Y-33373285D02*
X106851428Y-34016142D01*
X107408571Y-34016142D01*
X103968571Y-34316142D02*
X103454285Y-34316142D01*
X103711428Y-34316142D02*
X103711428Y-33416142D01*
X103625714Y-33544714D01*
X103540000Y-33630428D01*
X103454285Y-33673285D01*
X104268571Y-33416142D02*
X104825714Y-33416142D01*
X104525714Y-33759000D01*
X104654285Y-33759000D01*
X104740000Y-33801857D01*
X104782857Y-33844714D01*
X104825714Y-33930428D01*
X104825714Y-34144714D01*
X104782857Y-34230428D01*
X104740000Y-34273285D01*
X104654285Y-34316142D01*
X104397142Y-34316142D01*
X104311428Y-34273285D01*
X104268571Y-34230428D01*
X101428571Y-34316142D02*
X100914285Y-34316142D01*
X101171428Y-34316142D02*
X101171428Y-33416142D01*
X101085714Y-33544714D01*
X101000000Y-33630428D01*
X100914285Y-33673285D01*
X101771428Y-33501857D02*
X101814285Y-33459000D01*
X101900000Y-33416142D01*
X102114285Y-33416142D01*
X102200000Y-33459000D01*
X102242857Y-33501857D01*
X102285714Y-33587571D01*
X102285714Y-33673285D01*
X102242857Y-33801857D01*
X101728571Y-34316142D01*
X102285714Y-34316142D01*
X98888571Y-34316142D02*
X98374285Y-34316142D01*
X98631428Y-34316142D02*
X98631428Y-33416142D01*
X98545714Y-33544714D01*
X98460000Y-33630428D01*
X98374285Y-33673285D01*
X99745714Y-34316142D02*
X99231428Y-34316142D01*
X99488571Y-34316142D02*
X99488571Y-33416142D01*
X99402857Y-33544714D01*
X99317142Y-33630428D01*
X99231428Y-33673285D01*
X96348571Y-34316142D02*
X95834285Y-34316142D01*
X96091428Y-34316142D02*
X96091428Y-33416142D01*
X96005714Y-33544714D01*
X95920000Y-33630428D01*
X95834285Y-33673285D01*
X96905714Y-33416142D02*
X96991428Y-33416142D01*
X97077142Y-33459000D01*
X97120000Y-33501857D01*
X97162857Y-33587571D01*
X97205714Y-33759000D01*
X97205714Y-33973285D01*
X97162857Y-34144714D01*
X97120000Y-34230428D01*
X97077142Y-34273285D01*
X96991428Y-34316142D01*
X96905714Y-34316142D01*
X96820000Y-34273285D01*
X96777142Y-34230428D01*
X96734285Y-34144714D01*
X96691428Y-33973285D01*
X96691428Y-33759000D01*
X96734285Y-33587571D01*
X96777142Y-33501857D01*
X96820000Y-33459000D01*
X96905714Y-33416142D01*
X93808571Y-34316142D02*
X93980000Y-34316142D01*
X94065714Y-34273285D01*
X94108571Y-34230428D01*
X94194285Y-34101857D01*
X94237142Y-33930428D01*
X94237142Y-33587571D01*
X94194285Y-33501857D01*
X94151428Y-33459000D01*
X94065714Y-33416142D01*
X93894285Y-33416142D01*
X93808571Y-33459000D01*
X93765714Y-33501857D01*
X93722857Y-33587571D01*
X93722857Y-33801857D01*
X93765714Y-33887571D01*
X93808571Y-33930428D01*
X93894285Y-33973285D01*
X94065714Y-33973285D01*
X94151428Y-33930428D01*
X94194285Y-33887571D01*
X94237142Y-33801857D01*
X91354285Y-33801857D02*
X91268571Y-33759000D01*
X91225714Y-33716142D01*
X91182857Y-33630428D01*
X91182857Y-33587571D01*
X91225714Y-33501857D01*
X91268571Y-33459000D01*
X91354285Y-33416142D01*
X91525714Y-33416142D01*
X91611428Y-33459000D01*
X91654285Y-33501857D01*
X91697142Y-33587571D01*
X91697142Y-33630428D01*
X91654285Y-33716142D01*
X91611428Y-33759000D01*
X91525714Y-33801857D01*
X91354285Y-33801857D01*
X91268571Y-33844714D01*
X91225714Y-33887571D01*
X91182857Y-33973285D01*
X91182857Y-34144714D01*
X91225714Y-34230428D01*
X91268571Y-34273285D01*
X91354285Y-34316142D01*
X91525714Y-34316142D01*
X91611428Y-34273285D01*
X91654285Y-34230428D01*
X91697142Y-34144714D01*
X91697142Y-33973285D01*
X91654285Y-33887571D01*
X91611428Y-33844714D01*
X91525714Y-33801857D01*
X88600000Y-33416142D02*
X89200000Y-33416142D01*
X88814285Y-34316142D01*
X86531428Y-33416142D02*
X86360000Y-33416142D01*
X86274285Y-33459000D01*
X86231428Y-33501857D01*
X86145714Y-33630428D01*
X86102857Y-33801857D01*
X86102857Y-34144714D01*
X86145714Y-34230428D01*
X86188571Y-34273285D01*
X86274285Y-34316142D01*
X86445714Y-34316142D01*
X86531428Y-34273285D01*
X86574285Y-34230428D01*
X86617142Y-34144714D01*
X86617142Y-33930428D01*
X86574285Y-33844714D01*
X86531428Y-33801857D01*
X86445714Y-33759000D01*
X86274285Y-33759000D01*
X86188571Y-33801857D01*
X86145714Y-33844714D01*
X86102857Y-33930428D01*
X84034285Y-33416142D02*
X83605714Y-33416142D01*
X83562857Y-33844714D01*
X83605714Y-33801857D01*
X83691428Y-33759000D01*
X83905714Y-33759000D01*
X83991428Y-33801857D01*
X84034285Y-33844714D01*
X84077142Y-33930428D01*
X84077142Y-34144714D01*
X84034285Y-34230428D01*
X83991428Y-34273285D01*
X83905714Y-34316142D01*
X83691428Y-34316142D01*
X83605714Y-34273285D01*
X83562857Y-34230428D01*
X81451428Y-33716142D02*
X81451428Y-34316142D01*
X81237142Y-33373285D02*
X81022857Y-34016142D01*
X81580000Y-34016142D01*
X78440000Y-33416142D02*
X78997142Y-33416142D01*
X78697142Y-33759000D01*
X78825714Y-33759000D01*
X78911428Y-33801857D01*
X78954285Y-33844714D01*
X78997142Y-33930428D01*
X78997142Y-34144714D01*
X78954285Y-34230428D01*
X78911428Y-34273285D01*
X78825714Y-34316142D01*
X78568571Y-34316142D01*
X78482857Y-34273285D01*
X78440000Y-34230428D01*
X75942857Y-33501857D02*
X75985714Y-33459000D01*
X76071428Y-33416142D01*
X76285714Y-33416142D01*
X76371428Y-33459000D01*
X76414285Y-33501857D01*
X76457142Y-33587571D01*
X76457142Y-33673285D01*
X76414285Y-33801857D01*
X75900000Y-34316142D01*
X76457142Y-34316142D01*
X73917142Y-34316142D02*
X73402857Y-34316142D01*
X73660000Y-34316142D02*
X73660000Y-33416142D01*
X73574285Y-33544714D01*
X73488571Y-33630428D01*
X73402857Y-33673285D01*
X109854642Y-51577142D02*
X110368928Y-51577142D01*
X110111785Y-52477142D02*
X110111785Y-51577142D01*
X110668928Y-52477142D02*
X110668928Y-51577142D01*
X110883214Y-51577142D01*
X111011785Y-51620000D01*
X111097500Y-51705714D01*
X111140357Y-51791428D01*
X111183214Y-51962857D01*
X111183214Y-52091428D01*
X111140357Y-52262857D01*
X111097500Y-52348571D01*
X111011785Y-52434285D01*
X110883214Y-52477142D01*
X110668928Y-52477142D01*
X111740357Y-51577142D02*
X111911785Y-51577142D01*
X111997500Y-51620000D01*
X112083214Y-51705714D01*
X112126071Y-51877142D01*
X112126071Y-52177142D01*
X112083214Y-52348571D01*
X111997500Y-52434285D01*
X111911785Y-52477142D01*
X111740357Y-52477142D01*
X111654642Y-52434285D01*
X111568928Y-52348571D01*
X111526071Y-52177142D01*
X111526071Y-51877142D01*
X111568928Y-51705714D01*
X111654642Y-51620000D01*
X111740357Y-51577142D01*
X109897500Y-49037142D02*
X110411785Y-49037142D01*
X110154642Y-49937142D02*
X110154642Y-49037142D01*
X111226071Y-49851428D02*
X111183214Y-49894285D01*
X111054642Y-49937142D01*
X110968928Y-49937142D01*
X110840357Y-49894285D01*
X110754642Y-49808571D01*
X110711785Y-49722857D01*
X110668928Y-49551428D01*
X110668928Y-49422857D01*
X110711785Y-49251428D01*
X110754642Y-49165714D01*
X110840357Y-49080000D01*
X110968928Y-49037142D01*
X111054642Y-49037142D01*
X111183214Y-49080000D01*
X111226071Y-49122857D01*
X111611785Y-49937142D02*
X111611785Y-49037142D01*
X112126071Y-49937142D02*
X111740357Y-49422857D01*
X112126071Y-49037142D02*
X111611785Y-49551428D01*
X109811785Y-46497142D02*
X110326071Y-46497142D01*
X110068928Y-47397142D02*
X110068928Y-46497142D01*
X110626071Y-47397142D02*
X110626071Y-46497142D01*
X110926071Y-47140000D01*
X111226071Y-46497142D01*
X111226071Y-47397142D01*
X111611785Y-47354285D02*
X111740357Y-47397142D01*
X111954642Y-47397142D01*
X112040357Y-47354285D01*
X112083214Y-47311428D01*
X112126071Y-47225714D01*
X112126071Y-47140000D01*
X112083214Y-47054285D01*
X112040357Y-47011428D01*
X111954642Y-46968571D01*
X111783214Y-46925714D01*
X111697500Y-46882857D01*
X111654642Y-46840000D01*
X111611785Y-46754285D01*
X111611785Y-46668571D01*
X111654642Y-46582857D01*
X111697500Y-46540000D01*
X111783214Y-46497142D01*
X111997500Y-46497142D01*
X112126071Y-46540000D01*
X110368928Y-43957142D02*
X110883214Y-43957142D01*
X110626071Y-44857142D02*
X110626071Y-43957142D01*
X111183214Y-44857142D02*
X111183214Y-43957142D01*
X111397500Y-43957142D01*
X111526071Y-44000000D01*
X111611785Y-44085714D01*
X111654642Y-44171428D01*
X111697500Y-44342857D01*
X111697500Y-44471428D01*
X111654642Y-44642857D01*
X111611785Y-44728571D01*
X111526071Y-44814285D01*
X111397500Y-44857142D01*
X111183214Y-44857142D01*
X112083214Y-44857142D02*
X112083214Y-43957142D01*
X109768928Y-41974285D02*
X110454642Y-41974285D01*
X110111785Y-42317142D02*
X110111785Y-41631428D01*
X111311785Y-41417142D02*
X110883214Y-41417142D01*
X110840357Y-41845714D01*
X110883214Y-41802857D01*
X110968928Y-41760000D01*
X111183214Y-41760000D01*
X111268928Y-41802857D01*
X111311785Y-41845714D01*
X111354642Y-41931428D01*
X111354642Y-42145714D01*
X111311785Y-42231428D01*
X111268928Y-42274285D01*
X111183214Y-42317142D01*
X110968928Y-42317142D01*
X110883214Y-42274285D01*
X110840357Y-42231428D01*
X111611785Y-41417142D02*
X111911785Y-42317142D01*
X112211785Y-41417142D01*
X110240357Y-38920000D02*
X110154642Y-38877142D01*
X110026071Y-38877142D01*
X109897500Y-38920000D01*
X109811785Y-39005714D01*
X109768928Y-39091428D01*
X109726071Y-39262857D01*
X109726071Y-39391428D01*
X109768928Y-39562857D01*
X109811785Y-39648571D01*
X109897500Y-39734285D01*
X110026071Y-39777142D01*
X110111785Y-39777142D01*
X110240357Y-39734285D01*
X110283214Y-39691428D01*
X110283214Y-39391428D01*
X110111785Y-39391428D01*
X110668928Y-39777142D02*
X110668928Y-38877142D01*
X111183214Y-39777142D01*
X111183214Y-38877142D01*
X111611785Y-39777142D02*
X111611785Y-38877142D01*
X111826071Y-38877142D01*
X111954642Y-38920000D01*
X112040357Y-39005714D01*
X112083214Y-39091428D01*
X112126071Y-39262857D01*
X112126071Y-39391428D01*
X112083214Y-39562857D01*
X112040357Y-39648571D01*
X111954642Y-39734285D01*
X111826071Y-39777142D01*
X111611785Y-39777142D01*
D11*
X75182000Y-45557221D02*
X75182000Y-45882779D01*
X76202000Y-45557221D02*
X76202000Y-45882779D01*
X71973221Y-43436000D02*
X72298779Y-43436000D01*
X71973221Y-42416000D02*
X72298779Y-42416000D01*
X95341221Y-38610000D02*
X95666779Y-38610000D01*
X95341221Y-37590000D02*
X95666779Y-37590000D01*
X99837221Y-47910000D02*
X100162779Y-47910000D01*
X99837221Y-46890000D02*
X100162779Y-46890000D01*
X84330000Y-41818779D02*
X84330000Y-41493221D01*
X83310000Y-41818779D02*
X83310000Y-41493221D01*
X73290000Y-44110000D02*
X70840000Y-44110000D01*
X71490000Y-47330000D02*
X73290000Y-47330000D01*
X112970000Y-38040000D02*
X114300000Y-38040000D01*
X112970000Y-39370000D02*
X112970000Y-38040000D01*
X112970000Y-40640000D02*
X115630000Y-40640000D01*
X115630000Y-40640000D02*
X115630000Y-53400000D01*
X112970000Y-40640000D02*
X112970000Y-53400000D01*
X112970000Y-53400000D02*
X115630000Y-53400000D01*
D10*
X86840000Y-50895000D02*
X86840000Y-52170000D01*
X86265000Y-40545000D02*
X86265000Y-41220000D01*
X96615000Y-40545000D02*
X96615000Y-41220000D01*
X96615000Y-50895000D02*
X96615000Y-50220000D01*
X86265000Y-50895000D02*
X86265000Y-50220000D01*
X96615000Y-50895000D02*
X95940000Y-50895000D01*
X96615000Y-40545000D02*
X95940000Y-40545000D01*
X86265000Y-40545000D02*
X86940000Y-40545000D01*
X86265000Y-50895000D02*
X86840000Y-50895000D01*
M02*
