M48
; DRILL file {KiCad (5.1.4)-1} date 2019-10-24 16:07:38
; FORMAT={-:-/ absolute / inch / decimal}
; #@! TF.CreationDate,2019-10-24T16:07:38-04:00
; #@! TF.GenerationSoftware,Kicad,Pcbnew,(5.1.4)-1
; #@! TF.FileFunction,Plated,1,2,PTH
FMAT,2
INCH
T1C0.0118
T2C0.0157
T3C0.0394
%
G90
G05
T1
X3.0551Y-1.7638
X3.76Y-1.87
X3.85Y-2.04
X3.9Y-2.03
T2
X2.9291Y-1.6929
X2.9764Y-1.8819
X3.24Y-1.61
X3.3Y-1.56
X3.33Y-2.09
X3.5354Y-1.9528
X3.66Y-1.8
X3.6772Y-1.6457
X3.75Y-2.09
X3.7638Y-1.7795
X3.81Y-1.56
X3.85Y-1.5
X3.93Y-1.81
X4.0236Y-1.8898
T3
X4.5Y-1.55
X4.5Y-1.65
X4.5Y-1.75
X4.5Y-1.85
X4.5Y-1.95
X4.5Y-2.05
X2.8Y-2.2
X2.9Y-2.2
X3.0Y-2.2
X3.1Y-2.2
X3.2Y-2.2
X3.3Y-2.2
X3.4Y-2.2
X3.5Y-2.2
X3.6Y-2.2
X3.7Y-2.2
X3.8Y-2.2
X3.9Y-2.2
X4.0Y-2.2
X4.1Y-2.2
X4.2Y-2.2
X4.3Y-2.2
X4.4Y-2.2
X4.5Y-2.2
X2.8Y-1.4
X2.9Y-1.4
X3.0Y-1.4
X3.1Y-1.4
X3.2Y-1.4
X3.3Y-1.4
X3.4Y-1.4
X3.5Y-1.4
X3.6Y-1.4
X3.7Y-1.4
X3.8Y-1.4
X3.9Y-1.4
X4.0Y-1.4
X4.1Y-1.4
X4.2Y-1.4
X4.3Y-1.4
X4.4Y-1.4
X4.5Y-1.4
T0
M30
