G04 #@! TF.GenerationSoftware,KiCad,Pcbnew,(5.1.4)-1*
G04 #@! TF.CreationDate,2019-10-24T16:07:41-04:00*
G04 #@! TF.ProjectId,XC9536XL,58433935-3336-4584-9c2e-6b696361645f,B*
G04 #@! TF.SameCoordinates,Original*
G04 #@! TF.FileFunction,Legend,Bot*
G04 #@! TF.FilePolarity,Positive*
%FSLAX46Y46*%
G04 Gerber Fmt 4.6, Leading zero omitted, Abs format (unit mm)*
G04 Created by KiCad (PCBNEW (5.1.4)-1) date 2019-10-24 16:07:41*
%MOMM*%
%LPD*%
G04 APERTURE LIST*
%ADD10C,0.100000*%
%ADD11C,0.120000*%
G04 APERTURE END LIST*
D10*
X111355285Y-39057428D02*
X110955285Y-39657428D01*
X110955285Y-39057428D02*
X111355285Y-39657428D01*
X110383857Y-39600285D02*
X110412428Y-39628857D01*
X110498142Y-39657428D01*
X110555285Y-39657428D01*
X110641000Y-39628857D01*
X110698142Y-39571714D01*
X110726714Y-39514571D01*
X110755285Y-39400285D01*
X110755285Y-39314571D01*
X110726714Y-39200285D01*
X110698142Y-39143142D01*
X110641000Y-39086000D01*
X110555285Y-39057428D01*
X110498142Y-39057428D01*
X110412428Y-39086000D01*
X110383857Y-39114571D01*
X110098142Y-39657428D02*
X109983857Y-39657428D01*
X109926714Y-39628857D01*
X109898142Y-39600285D01*
X109841000Y-39514571D01*
X109812428Y-39400285D01*
X109812428Y-39171714D01*
X109841000Y-39114571D01*
X109869571Y-39086000D01*
X109926714Y-39057428D01*
X110041000Y-39057428D01*
X110098142Y-39086000D01*
X110126714Y-39114571D01*
X110155285Y-39171714D01*
X110155285Y-39314571D01*
X110126714Y-39371714D01*
X110098142Y-39400285D01*
X110041000Y-39428857D01*
X109926714Y-39428857D01*
X109869571Y-39400285D01*
X109841000Y-39371714D01*
X109812428Y-39314571D01*
X109269571Y-39057428D02*
X109555285Y-39057428D01*
X109583857Y-39343142D01*
X109555285Y-39314571D01*
X109498142Y-39286000D01*
X109355285Y-39286000D01*
X109298142Y-39314571D01*
X109269571Y-39343142D01*
X109241000Y-39400285D01*
X109241000Y-39543142D01*
X109269571Y-39600285D01*
X109298142Y-39628857D01*
X109355285Y-39657428D01*
X109498142Y-39657428D01*
X109555285Y-39628857D01*
X109583857Y-39600285D01*
X109041000Y-39057428D02*
X108669571Y-39057428D01*
X108869571Y-39286000D01*
X108783857Y-39286000D01*
X108726714Y-39314571D01*
X108698142Y-39343142D01*
X108669571Y-39400285D01*
X108669571Y-39543142D01*
X108698142Y-39600285D01*
X108726714Y-39628857D01*
X108783857Y-39657428D01*
X108955285Y-39657428D01*
X109012428Y-39628857D01*
X109041000Y-39600285D01*
X108155285Y-39057428D02*
X108269571Y-39057428D01*
X108326714Y-39086000D01*
X108355285Y-39114571D01*
X108412428Y-39200285D01*
X108441000Y-39314571D01*
X108441000Y-39543142D01*
X108412428Y-39600285D01*
X108383857Y-39628857D01*
X108326714Y-39657428D01*
X108212428Y-39657428D01*
X108155285Y-39628857D01*
X108126714Y-39600285D01*
X108098142Y-39543142D01*
X108098142Y-39400285D01*
X108126714Y-39343142D01*
X108155285Y-39314571D01*
X108212428Y-39286000D01*
X108326714Y-39286000D01*
X108383857Y-39314571D01*
X108412428Y-39343142D01*
X108441000Y-39400285D01*
X107898142Y-39057428D02*
X107498142Y-39657428D01*
X107498142Y-39057428D02*
X107898142Y-39657428D01*
X106983857Y-39657428D02*
X107269571Y-39657428D01*
X107269571Y-39057428D01*
X106126714Y-39343142D02*
X106041000Y-39371714D01*
X106012428Y-39400285D01*
X105983857Y-39457428D01*
X105983857Y-39543142D01*
X106012428Y-39600285D01*
X106041000Y-39628857D01*
X106098142Y-39657428D01*
X106326714Y-39657428D01*
X106326714Y-39057428D01*
X106126714Y-39057428D01*
X106069571Y-39086000D01*
X106041000Y-39114571D01*
X106012428Y-39171714D01*
X106012428Y-39228857D01*
X106041000Y-39286000D01*
X106069571Y-39314571D01*
X106126714Y-39343142D01*
X106326714Y-39343142D01*
X105726714Y-39657428D02*
X105726714Y-39257428D01*
X105726714Y-39371714D02*
X105698142Y-39314571D01*
X105669571Y-39286000D01*
X105612428Y-39257428D01*
X105555285Y-39257428D01*
X105126714Y-39628857D02*
X105183857Y-39657428D01*
X105298142Y-39657428D01*
X105355285Y-39628857D01*
X105383857Y-39571714D01*
X105383857Y-39343142D01*
X105355285Y-39286000D01*
X105298142Y-39257428D01*
X105183857Y-39257428D01*
X105126714Y-39286000D01*
X105098142Y-39343142D01*
X105098142Y-39400285D01*
X105383857Y-39457428D01*
X104583857Y-39657428D02*
X104583857Y-39343142D01*
X104612428Y-39286000D01*
X104669571Y-39257428D01*
X104783857Y-39257428D01*
X104841000Y-39286000D01*
X104583857Y-39628857D02*
X104641000Y-39657428D01*
X104783857Y-39657428D01*
X104841000Y-39628857D01*
X104869571Y-39571714D01*
X104869571Y-39514571D01*
X104841000Y-39457428D01*
X104783857Y-39428857D01*
X104641000Y-39428857D01*
X104583857Y-39400285D01*
X104298142Y-39657428D02*
X104298142Y-39057428D01*
X104241000Y-39428857D02*
X104069571Y-39657428D01*
X104069571Y-39257428D02*
X104298142Y-39486000D01*
X103726714Y-39657428D02*
X103783857Y-39628857D01*
X103812428Y-39600285D01*
X103841000Y-39543142D01*
X103841000Y-39371714D01*
X103812428Y-39314571D01*
X103783857Y-39286000D01*
X103726714Y-39257428D01*
X103641000Y-39257428D01*
X103583857Y-39286000D01*
X103555285Y-39314571D01*
X103526714Y-39371714D01*
X103526714Y-39543142D01*
X103555285Y-39600285D01*
X103583857Y-39628857D01*
X103641000Y-39657428D01*
X103726714Y-39657428D01*
X103012428Y-39257428D02*
X103012428Y-39657428D01*
X103269571Y-39257428D02*
X103269571Y-39571714D01*
X103241000Y-39628857D01*
X103183857Y-39657428D01*
X103098142Y-39657428D01*
X103041000Y-39628857D01*
X103012428Y-39600285D01*
X102812428Y-39257428D02*
X102583857Y-39257428D01*
X102726714Y-39057428D02*
X102726714Y-39571714D01*
X102698142Y-39628857D01*
X102641000Y-39657428D01*
X102583857Y-39657428D01*
X101583857Y-39657428D02*
X101783857Y-39371714D01*
X101926714Y-39657428D02*
X101926714Y-39057428D01*
X101698142Y-39057428D01*
X101641000Y-39086000D01*
X101612428Y-39114571D01*
X101583857Y-39171714D01*
X101583857Y-39257428D01*
X101612428Y-39314571D01*
X101641000Y-39343142D01*
X101698142Y-39371714D01*
X101926714Y-39371714D01*
X101098142Y-39628857D02*
X101155285Y-39657428D01*
X101269571Y-39657428D01*
X101326714Y-39628857D01*
X101355285Y-39571714D01*
X101355285Y-39343142D01*
X101326714Y-39286000D01*
X101269571Y-39257428D01*
X101155285Y-39257428D01*
X101098142Y-39286000D01*
X101069571Y-39343142D01*
X101069571Y-39400285D01*
X101355285Y-39457428D01*
X100869571Y-39257428D02*
X100726714Y-39657428D01*
X100583857Y-39257428D01*
X99926714Y-39486000D02*
X99641000Y-39486000D01*
X99983857Y-39657428D02*
X99783857Y-39057428D01*
X99583857Y-39657428D01*
X111326714Y-40114571D02*
X111298142Y-40086000D01*
X111241000Y-40057428D01*
X111098142Y-40057428D01*
X111041000Y-40086000D01*
X111012428Y-40114571D01*
X110983857Y-40171714D01*
X110983857Y-40228857D01*
X111012428Y-40314571D01*
X111355285Y-40657428D01*
X110983857Y-40657428D01*
X110612428Y-40057428D02*
X110555285Y-40057428D01*
X110498142Y-40086000D01*
X110469571Y-40114571D01*
X110441000Y-40171714D01*
X110412428Y-40286000D01*
X110412428Y-40428857D01*
X110441000Y-40543142D01*
X110469571Y-40600285D01*
X110498142Y-40628857D01*
X110555285Y-40657428D01*
X110612428Y-40657428D01*
X110669571Y-40628857D01*
X110698142Y-40600285D01*
X110726714Y-40543142D01*
X110755285Y-40428857D01*
X110755285Y-40286000D01*
X110726714Y-40171714D01*
X110698142Y-40114571D01*
X110669571Y-40086000D01*
X110612428Y-40057428D01*
X109841000Y-40657428D02*
X110183857Y-40657428D01*
X110012428Y-40657428D02*
X110012428Y-40057428D01*
X110069571Y-40143142D01*
X110126714Y-40200285D01*
X110183857Y-40228857D01*
X109555285Y-40657428D02*
X109441000Y-40657428D01*
X109383857Y-40628857D01*
X109355285Y-40600285D01*
X109298142Y-40514571D01*
X109269571Y-40400285D01*
X109269571Y-40171714D01*
X109298142Y-40114571D01*
X109326714Y-40086000D01*
X109383857Y-40057428D01*
X109498142Y-40057428D01*
X109555285Y-40086000D01*
X109583857Y-40114571D01*
X109612428Y-40171714D01*
X109612428Y-40314571D01*
X109583857Y-40371714D01*
X109555285Y-40400285D01*
X109498142Y-40428857D01*
X109383857Y-40428857D01*
X109326714Y-40400285D01*
X109298142Y-40371714D01*
X109269571Y-40314571D01*
X108555285Y-40657428D02*
X108555285Y-40057428D01*
X108412428Y-40057428D01*
X108326714Y-40086000D01*
X108269571Y-40143142D01*
X108241000Y-40200285D01*
X108212428Y-40314571D01*
X108212428Y-40400285D01*
X108241000Y-40514571D01*
X108269571Y-40571714D01*
X108326714Y-40628857D01*
X108412428Y-40657428D01*
X108555285Y-40657428D01*
X107869571Y-40657428D02*
X107926714Y-40628857D01*
X107955285Y-40600285D01*
X107983857Y-40543142D01*
X107983857Y-40371714D01*
X107955285Y-40314571D01*
X107926714Y-40286000D01*
X107869571Y-40257428D01*
X107783857Y-40257428D01*
X107726714Y-40286000D01*
X107698142Y-40314571D01*
X107669571Y-40371714D01*
X107669571Y-40543142D01*
X107698142Y-40600285D01*
X107726714Y-40628857D01*
X107783857Y-40657428D01*
X107869571Y-40657428D01*
X107412428Y-40657428D02*
X107412428Y-40257428D01*
X107412428Y-40314571D02*
X107383857Y-40286000D01*
X107326714Y-40257428D01*
X107241000Y-40257428D01*
X107183857Y-40286000D01*
X107155285Y-40343142D01*
X107155285Y-40657428D01*
X107155285Y-40343142D02*
X107126714Y-40286000D01*
X107069571Y-40257428D01*
X106983857Y-40257428D01*
X106926714Y-40286000D01*
X106898142Y-40343142D01*
X106898142Y-40657428D01*
X106612428Y-40657428D02*
X106612428Y-40257428D01*
X106612428Y-40057428D02*
X106641000Y-40086000D01*
X106612428Y-40114571D01*
X106583857Y-40086000D01*
X106612428Y-40057428D01*
X106612428Y-40114571D01*
X106326714Y-40257428D02*
X106326714Y-40657428D01*
X106326714Y-40314571D02*
X106298142Y-40286000D01*
X106241000Y-40257428D01*
X106155285Y-40257428D01*
X106098142Y-40286000D01*
X106069571Y-40343142D01*
X106069571Y-40657428D01*
X105783857Y-40657428D02*
X105783857Y-40257428D01*
X105783857Y-40057428D02*
X105812428Y-40086000D01*
X105783857Y-40114571D01*
X105755285Y-40086000D01*
X105783857Y-40057428D01*
X105783857Y-40114571D01*
X105241000Y-40628857D02*
X105298142Y-40657428D01*
X105412428Y-40657428D01*
X105469571Y-40628857D01*
X105498142Y-40600285D01*
X105526714Y-40543142D01*
X105526714Y-40371714D01*
X105498142Y-40314571D01*
X105469571Y-40286000D01*
X105412428Y-40257428D01*
X105298142Y-40257428D01*
X105241000Y-40286000D01*
X104612428Y-40057428D02*
X104269571Y-40057428D01*
X104441000Y-40657428D02*
X104441000Y-40057428D01*
X104069571Y-40657428D02*
X104069571Y-40057428D01*
X103812428Y-40657428D02*
X103812428Y-40343142D01*
X103841000Y-40286000D01*
X103898142Y-40257428D01*
X103983857Y-40257428D01*
X104041000Y-40286000D01*
X104069571Y-40314571D01*
X103526714Y-40657428D02*
X103526714Y-40257428D01*
X103526714Y-40057428D02*
X103555285Y-40086000D01*
X103526714Y-40114571D01*
X103498142Y-40086000D01*
X103526714Y-40057428D01*
X103526714Y-40114571D01*
X103241000Y-40657428D02*
X103241000Y-40057428D01*
X103241000Y-40286000D02*
X103183857Y-40257428D01*
X103069571Y-40257428D01*
X103012428Y-40286000D01*
X102983857Y-40314571D01*
X102955285Y-40371714D01*
X102955285Y-40543142D01*
X102983857Y-40600285D01*
X103012428Y-40628857D01*
X103069571Y-40657428D01*
X103183857Y-40657428D01*
X103241000Y-40628857D01*
X102612428Y-40657428D02*
X102669571Y-40628857D01*
X102698142Y-40600285D01*
X102726714Y-40543142D01*
X102726714Y-40371714D01*
X102698142Y-40314571D01*
X102669571Y-40286000D01*
X102612428Y-40257428D01*
X102526714Y-40257428D01*
X102469571Y-40286000D01*
X102441000Y-40314571D01*
X102412428Y-40371714D01*
X102412428Y-40543142D01*
X102441000Y-40600285D01*
X102469571Y-40628857D01*
X102526714Y-40657428D01*
X102612428Y-40657428D01*
X101898142Y-40657428D02*
X101898142Y-40057428D01*
X101898142Y-40628857D02*
X101955285Y-40657428D01*
X102069571Y-40657428D01*
X102126714Y-40628857D01*
X102155285Y-40600285D01*
X102183857Y-40543142D01*
X102183857Y-40371714D01*
X102155285Y-40314571D01*
X102126714Y-40286000D01*
X102069571Y-40257428D01*
X101955285Y-40257428D01*
X101898142Y-40286000D01*
X101383857Y-40628857D02*
X101441000Y-40657428D01*
X101555285Y-40657428D01*
X101612428Y-40628857D01*
X101641000Y-40571714D01*
X101641000Y-40343142D01*
X101612428Y-40286000D01*
X101555285Y-40257428D01*
X101441000Y-40257428D01*
X101383857Y-40286000D01*
X101355285Y-40343142D01*
X101355285Y-40400285D01*
X101641000Y-40457428D01*
X100841000Y-40657428D02*
X100841000Y-40343142D01*
X100869571Y-40286000D01*
X100926714Y-40257428D01*
X101041000Y-40257428D01*
X101098142Y-40286000D01*
X100841000Y-40628857D02*
X100898142Y-40657428D01*
X101041000Y-40657428D01*
X101098142Y-40628857D01*
X101126714Y-40571714D01*
X101126714Y-40514571D01*
X101098142Y-40457428D01*
X101041000Y-40428857D01*
X100898142Y-40428857D01*
X100841000Y-40400285D01*
X100298142Y-40257428D02*
X100298142Y-40657428D01*
X100555285Y-40257428D02*
X100555285Y-40571714D01*
X100526714Y-40628857D01*
X100469571Y-40657428D01*
X100383857Y-40657428D01*
X100326714Y-40628857D01*
X100298142Y-40600285D01*
X111041000Y-41657428D02*
X111041000Y-41057428D01*
X111041000Y-41628857D02*
X111098142Y-41657428D01*
X111212428Y-41657428D01*
X111269571Y-41628857D01*
X111298142Y-41600285D01*
X111326714Y-41543142D01*
X111326714Y-41371714D01*
X111298142Y-41314571D01*
X111269571Y-41286000D01*
X111212428Y-41257428D01*
X111098142Y-41257428D01*
X111041000Y-41286000D01*
X110526714Y-41628857D02*
X110583857Y-41657428D01*
X110698142Y-41657428D01*
X110755285Y-41628857D01*
X110783857Y-41571714D01*
X110783857Y-41343142D01*
X110755285Y-41286000D01*
X110698142Y-41257428D01*
X110583857Y-41257428D01*
X110526714Y-41286000D01*
X110498142Y-41343142D01*
X110498142Y-41400285D01*
X110783857Y-41457428D01*
X110298142Y-41257428D02*
X110155285Y-41657428D01*
X110012428Y-41257428D01*
X109412428Y-41371714D02*
X109441000Y-41343142D01*
X109498142Y-41314571D01*
X109555285Y-41314571D01*
X109612428Y-41343142D01*
X109641000Y-41371714D01*
X109669571Y-41428857D01*
X109669571Y-41486000D01*
X109641000Y-41543142D01*
X109612428Y-41571714D01*
X109555285Y-41600285D01*
X109498142Y-41600285D01*
X109441000Y-41571714D01*
X109412428Y-41543142D01*
X109412428Y-41314571D02*
X109412428Y-41543142D01*
X109383857Y-41571714D01*
X109355285Y-41571714D01*
X109298142Y-41543142D01*
X109269571Y-41486000D01*
X109269571Y-41343142D01*
X109326714Y-41257428D01*
X109412428Y-41200285D01*
X109526714Y-41171714D01*
X109641000Y-41200285D01*
X109726714Y-41257428D01*
X109783857Y-41343142D01*
X109812428Y-41457428D01*
X109783857Y-41571714D01*
X109726714Y-41657428D01*
X109641000Y-41714571D01*
X109526714Y-41743142D01*
X109412428Y-41714571D01*
X109326714Y-41657428D01*
X109012428Y-41657428D02*
X109012428Y-41057428D01*
X108755285Y-41657428D02*
X108755285Y-41343142D01*
X108783857Y-41286000D01*
X108841000Y-41257428D01*
X108926714Y-41257428D01*
X108983857Y-41286000D01*
X109012428Y-41314571D01*
X108383857Y-41657428D02*
X108441000Y-41628857D01*
X108469571Y-41600285D01*
X108498142Y-41543142D01*
X108498142Y-41371714D01*
X108469571Y-41314571D01*
X108441000Y-41286000D01*
X108383857Y-41257428D01*
X108298142Y-41257428D01*
X108241000Y-41286000D01*
X108212428Y-41314571D01*
X108183857Y-41371714D01*
X108183857Y-41543142D01*
X108212428Y-41600285D01*
X108241000Y-41628857D01*
X108298142Y-41657428D01*
X108383857Y-41657428D01*
X108012428Y-41257428D02*
X107783857Y-41257428D01*
X107926714Y-41057428D02*
X107926714Y-41571714D01*
X107898142Y-41628857D01*
X107841000Y-41657428D01*
X107783857Y-41657428D01*
X107583857Y-41657428D02*
X107583857Y-41057428D01*
X107526714Y-41428857D02*
X107355285Y-41657428D01*
X107355285Y-41257428D02*
X107583857Y-41486000D01*
X106869571Y-41628857D02*
X106926714Y-41657428D01*
X107041000Y-41657428D01*
X107098142Y-41628857D01*
X107126714Y-41571714D01*
X107126714Y-41343142D01*
X107098142Y-41286000D01*
X107041000Y-41257428D01*
X106926714Y-41257428D01*
X106869571Y-41286000D01*
X106841000Y-41343142D01*
X106841000Y-41400285D01*
X107126714Y-41457428D01*
X106641000Y-41257428D02*
X106498142Y-41657428D01*
X106355285Y-41257428D02*
X106498142Y-41657428D01*
X106555285Y-41800285D01*
X106583857Y-41828857D01*
X106641000Y-41857428D01*
X106155285Y-41628857D02*
X106098142Y-41657428D01*
X105983857Y-41657428D01*
X105926714Y-41628857D01*
X105898142Y-41571714D01*
X105898142Y-41543142D01*
X105926714Y-41486000D01*
X105983857Y-41457428D01*
X106069571Y-41457428D01*
X106126714Y-41428857D01*
X106155285Y-41371714D01*
X106155285Y-41343142D01*
X106126714Y-41286000D01*
X106069571Y-41257428D01*
X105983857Y-41257428D01*
X105926714Y-41286000D01*
X105555285Y-41657428D02*
X105612428Y-41628857D01*
X105641000Y-41600285D01*
X105669571Y-41543142D01*
X105669571Y-41371714D01*
X105641000Y-41314571D01*
X105612428Y-41286000D01*
X105555285Y-41257428D01*
X105469571Y-41257428D01*
X105412428Y-41286000D01*
X105383857Y-41314571D01*
X105355285Y-41371714D01*
X105355285Y-41543142D01*
X105383857Y-41600285D01*
X105412428Y-41628857D01*
X105469571Y-41657428D01*
X105555285Y-41657428D01*
X105183857Y-41257428D02*
X104955285Y-41257428D01*
X105098142Y-41657428D02*
X105098142Y-41143142D01*
X105069571Y-41086000D01*
X105012428Y-41057428D01*
X104955285Y-41057428D01*
X104841000Y-41257428D02*
X104612428Y-41257428D01*
X104755285Y-41057428D02*
X104755285Y-41571714D01*
X104726714Y-41628857D01*
X104669571Y-41657428D01*
X104612428Y-41657428D01*
X104412428Y-41600285D02*
X104383857Y-41628857D01*
X104412428Y-41657428D01*
X104441000Y-41628857D01*
X104412428Y-41600285D01*
X104412428Y-41657428D01*
X104126714Y-41257428D02*
X104126714Y-41657428D01*
X104126714Y-41314571D02*
X104098142Y-41286000D01*
X104041000Y-41257428D01*
X103955285Y-41257428D01*
X103898142Y-41286000D01*
X103869571Y-41343142D01*
X103869571Y-41657428D01*
X103355285Y-41628857D02*
X103412428Y-41657428D01*
X103526714Y-41657428D01*
X103583857Y-41628857D01*
X103612428Y-41571714D01*
X103612428Y-41343142D01*
X103583857Y-41286000D01*
X103526714Y-41257428D01*
X103412428Y-41257428D01*
X103355285Y-41286000D01*
X103326714Y-41343142D01*
X103326714Y-41400285D01*
X103612428Y-41457428D01*
X103155285Y-41257428D02*
X102926714Y-41257428D01*
X103069571Y-41057428D02*
X103069571Y-41571714D01*
X103041000Y-41628857D01*
X102983857Y-41657428D01*
X102926714Y-41657428D01*
D11*
X69790000Y-54550000D02*
X69790000Y-55880000D01*
X71120000Y-54550000D02*
X69790000Y-54550000D01*
X72390000Y-54550000D02*
X72390000Y-57210000D01*
X72390000Y-57210000D02*
X115630000Y-57210000D01*
X72390000Y-54550000D02*
X115630000Y-54550000D01*
X115630000Y-54550000D02*
X115630000Y-57210000D01*
X69790000Y-34230000D02*
X69790000Y-35560000D01*
X71120000Y-34230000D02*
X69790000Y-34230000D01*
X72390000Y-34230000D02*
X72390000Y-36890000D01*
X72390000Y-36890000D02*
X115630000Y-36890000D01*
X72390000Y-34230000D02*
X115630000Y-34230000D01*
X115630000Y-34230000D02*
X115630000Y-36890000D01*
M02*
