G04 #@! TF.GenerationSoftware,KiCad,Pcbnew,(5.1.4)-1*
G04 #@! TF.CreationDate,2019-10-24T16:07:41-04:00*
G04 #@! TF.ProjectId,XC9536XL,58433935-3336-4584-9c2e-6b696361645f,B*
G04 #@! TF.SameCoordinates,Original*
G04 #@! TF.FileFunction,Soldermask,Bot*
G04 #@! TF.FilePolarity,Negative*
%FSLAX46Y46*%
G04 Gerber Fmt 4.6, Leading zero omitted, Abs format (unit mm)*
G04 Created by KiCad (PCBNEW (5.1.4)-1) date 2019-10-24 16:07:41*
%MOMM*%
%LPD*%
G04 APERTURE LIST*
%ADD10O,1.900000X1.900000*%
%ADD11R,1.900000X1.900000*%
G04 APERTURE END LIST*
D10*
X114300000Y-52070000D03*
X114300000Y-49530000D03*
X114300000Y-46990000D03*
X114300000Y-44450000D03*
X114300000Y-41910000D03*
D11*
X114300000Y-39370000D03*
D10*
X114300000Y-55880000D03*
X111760000Y-55880000D03*
X109220000Y-55880000D03*
X106680000Y-55880000D03*
X104140000Y-55880000D03*
X101600000Y-55880000D03*
X99060000Y-55880000D03*
X96520000Y-55880000D03*
X93980000Y-55880000D03*
X91440000Y-55880000D03*
X88900000Y-55880000D03*
X86360000Y-55880000D03*
X83820000Y-55880000D03*
X81280000Y-55880000D03*
X78740000Y-55880000D03*
X76200000Y-55880000D03*
X73660000Y-55880000D03*
D11*
X71120000Y-55880000D03*
D10*
X114300000Y-35560000D03*
X111760000Y-35560000D03*
X109220000Y-35560000D03*
X106680000Y-35560000D03*
X104140000Y-35560000D03*
X101600000Y-35560000D03*
X99060000Y-35560000D03*
X96520000Y-35560000D03*
X93980000Y-35560000D03*
X91440000Y-35560000D03*
X88900000Y-35560000D03*
X86360000Y-35560000D03*
X83820000Y-35560000D03*
X81280000Y-35560000D03*
X78740000Y-35560000D03*
X76200000Y-35560000D03*
X73660000Y-35560000D03*
D11*
X71120000Y-35560000D03*
M02*
