<?xml version="1.0" standalone="no"?>
 <!DOCTYPE svg PUBLIC "-//W3C//DTD SVG 1.1//EN" 
 "http://www.w3.org/Graphics/SVG/1.1/DTD/svg11.dtd"> 
<svg xmlns="http://www.w3.org/2000/svg" version="1.1" 
    width="6.92658cm" height="3.42646cm" viewBox="0 0 27270 13490 ">
<title>SVG Picture created as XC9536XL-brd.svg date 2020/07/11 17:39:52 </title>
  <desc>Picture generated by PCBNEW </desc>
<g style="fill:#000000; fill-opacity:1;stroke:#000000; stroke-opacity:1;
stroke-linecap:round; stroke-linejoin:round; "
 transform="translate(0 0) scale(1 1)">
</g>
<g style="fill:#000000; fill-opacity:0.0; 
stroke:#000000; stroke-width:-0.000393701; stroke-opacity:1; 
stroke-linecap:round; stroke-linejoin:round;">
</g>
<g style="fill:#840084; fill-opacity:0.0; 
stroke:#840084; stroke-width:-0.000393701; stroke-opacity:1; 
stroke-linecap:round; stroke-linejoin:round;">
</g>
<g style="fill:#840084; fill-opacity:0.0; 
stroke:#840084; stroke-width:39.3701; stroke-opacity:1; 
stroke-linecap:round; stroke-linejoin:round;">
<path d="M22685 2400
L22528 2636
" />
<path d="M22528 2400
L22685 2636
" />
<path d="M22303 2613
L22314 2625
L22348 2636
L22370 2636
L22404 2625
L22426 2602
L22438 2580
L22449 2535
L22449 2501
L22438 2456
L22426 2433
L22404 2411
L22370 2400
L22348 2400
L22314 2411
L22303 2422
" />
<path d="M22190 2636
L22145 2636
L22123 2625
L22111 2613
L22089 2580
L22078 2535
L22078 2445
L22089 2422
L22100 2411
L22123 2400
L22168 2400
L22190 2411
L22201 2422
L22213 2445
L22213 2501
L22201 2523
L22190 2535
L22168 2546
L22123 2546
L22100 2535
L22089 2523
L22078 2501
" />
<path d="M21864 2400
L21976 2400
L21988 2512
L21976 2501
L21954 2490
L21898 2490
L21875 2501
L21864 2512
L21853 2535
L21853 2591
L21864 2613
L21875 2625
L21898 2636
L21954 2636
L21976 2625
L21988 2613
" />
<path d="M21774 2400
L21628 2400
L21706 2490
L21673 2490
L21650 2501
L21639 2512
L21628 2535
L21628 2591
L21639 2613
L21650 2625
L21673 2636
L21740 2636
L21763 2625
L21774 2613
" />
<path d="M21425 2400
L21470 2400
L21493 2411
L21504 2422
L21526 2456
L21538 2501
L21538 2591
L21526 2613
L21515 2625
L21493 2636
L21448 2636
L21425 2625
L21414 2613
L21403 2591
L21403 2535
L21414 2512
L21425 2501
L21448 2490
L21493 2490
L21515 2501
L21526 2512
L21538 2535
" />
<path d="M21324 2400
L21166 2636
" />
<path d="M21166 2400
L21324 2636
" />
<path d="M20964 2636
L21076 2636
L21076 2400
" />
<path d="M20627 2512
L20593 2523
L20582 2535
L20570 2557
L20570 2591
L20582 2613
L20593 2625
L20615 2636
L20705 2636
L20705 2400
L20627 2400
L20604 2411
L20593 2422
L20582 2445
L20582 2467
L20593 2490
L20604 2501
L20627 2512
L20705 2512
" />
<path d="M20469 2636
L20469 2478
" />
<path d="M20469 2523
L20458 2501
L20447 2490
L20424 2478
L20402 2478
" />
<path d="M20233 2625
L20255 2636
L20300 2636
L20323 2625
L20334 2602
L20334 2512
L20323 2490
L20300 2478
L20255 2478
L20233 2490
L20222 2512
L20222 2535
L20334 2557
" />
<path d="M20019 2636
L20019 2512
L20030 2490
L20053 2478
L20098 2478
L20120 2490
" />
<path d="M20019 2625
L20042 2636
L20098 2636
L20120 2625
L20132 2602
L20132 2580
L20120 2557
L20098 2546
L20042 2546
L20019 2535
" />
<path d="M19907 2636
L19907 2400
" />
<path d="M19884 2546
L19817 2636
" />
<path d="M19817 2478
L19907 2568
" />
<path d="M19682 2636
L19704 2625
L19715 2613
L19727 2591
L19727 2523
L19715 2501
L19704 2490
L19682 2478
L19648 2478
L19625 2490
L19614 2501
L19603 2523
L19603 2591
L19614 2613
L19625 2625
L19648 2636
L19682 2636
" />
<path d="M19400 2478
L19400 2636
" />
<path d="M19502 2478
L19502 2602
L19490 2625
L19468 2636
L19434 2636
L19412 2625
L19400 2613
" />
<path d="M19322 2478
L19232 2478
" />
<path d="M19288 2400
L19288 2602
L19277 2625
L19254 2636
L19232 2636
" />
<path d="M18838 2636
L18917 2523
" />
<path d="M18973 2636
L18973 2400
L18883 2400
L18861 2411
L18849 2422
L18838 2445
L18838 2478
L18849 2501
L18861 2512
L18883 2523
L18973 2523
" />
<path d="M18647 2625
L18669 2636
L18714 2636
L18737 2625
L18748 2602
L18748 2512
L18737 2490
L18714 2478
L18669 2478
L18647 2490
L18636 2512
L18636 2535
L18748 2557
" />
<path d="M18557 2478
L18501 2636
L18444 2478
" />
<path d="M18186 2568
L18073 2568
" />
<path d="M18208 2636
L18129 2400
L18051 2636
" />
<path d="M22674 2816
L22663 2805
L22640 2793
L22584 2793
L22561 2805
L22550 2816
L22539 2838
L22539 2861
L22550 2895
L22685 3030
L22539 3030
" />
<path d="M22393 2793
L22370 2793
L22348 2805
L22336 2816
L22325 2838
L22314 2883
L22314 2940
L22325 2985
L22336 3007
L22348 3018
L22370 3030
L22393 3030
L22415 3018
L22426 3007
L22438 2985
L22449 2940
L22449 2883
L22438 2838
L22426 2816
L22415 2805
L22393 2793
" />
<path d="M22089 3030
L22224 3030
" />
<path d="M22156 3030
L22156 2793
L22179 2827
L22201 2850
L22224 2861
" />
<path d="M21976 3030
L21931 3030
L21909 3018
L21898 3007
L21875 2973
L21864 2928
L21864 2838
L21875 2816
L21886 2805
L21909 2793
L21954 2793
L21976 2805
L21988 2816
L21999 2838
L21999 2895
L21988 2917
L21976 2928
L21954 2940
L21909 2940
L21886 2928
L21875 2917
L21864 2895
" />
<path d="M21583 3030
L21583 2793
L21526 2793
L21493 2805
L21470 2827
L21459 2850
L21448 2895
L21448 2928
L21459 2973
L21470 2996
L21493 3018
L21526 3030
L21583 3030
" />
<path d="M21313 3030
L21335 3018
L21346 3007
L21358 2985
L21358 2917
L21346 2895
L21335 2883
L21313 2872
L21279 2872
L21256 2883
L21245 2895
L21234 2917
L21234 2985
L21245 3007
L21256 3018
L21279 3030
L21313 3030
" />
<path d="M21133 3030
L21133 2872
" />
<path d="M21133 2895
L21121 2883
L21099 2872
L21065 2872
L21043 2883
L21032 2906
L21032 3030
" />
<path d="M21032 2906
L21020 2883
L20998 2872
L20964 2872
L20942 2883
L20930 2906
L20930 3030
" />
<path d="M20818 3030
L20818 2872
" />
<path d="M20818 2793
L20829 2805
L20818 2816
L20807 2805
L20818 2793
L20818 2816
" />
<path d="M20705 2872
L20705 3030
" />
<path d="M20705 2895
L20694 2883
L20672 2872
L20638 2872
L20615 2883
L20604 2906
L20604 3030
" />
<path d="M20492 3030
L20492 2872
" />
<path d="M20492 2793
L20503 2805
L20492 2816
L20480 2805
L20492 2793
L20492 2816
" />
<path d="M20278 3018
L20300 3030
L20345 3030
L20368 3018
L20379 3007
L20390 2985
L20390 2917
L20379 2895
L20368 2883
L20345 2872
L20300 2872
L20278 2883
" />
<path d="M20030 2793
L19895 2793
" />
<path d="M19963 3030
L19963 2793
" />
<path d="M19817 3030
L19817 2793
" />
<path d="M19715 3030
L19715 2906
L19727 2883
L19749 2872
L19783 2872
L19805 2883
L19817 2895
" />
<path d="M19603 3030
L19603 2872
" />
<path d="M19603 2793
L19614 2805
L19603 2816
L19592 2805
L19603 2793
L19603 2816
" />
<path d="M19490 3030
L19490 2793
" />
<path d="M19490 2883
L19468 2872
L19423 2872
L19400 2883
L19389 2895
L19378 2917
L19378 2985
L19389 3007
L19400 3018
L19423 3030
L19468 3030
L19490 3018
" />
<path d="M19243 3030
L19265 3018
L19277 3007
L19288 2985
L19288 2917
L19277 2895
L19265 2883
L19243 2872
L19209 2872
L19187 2883
L19175 2895
L19164 2917
L19164 2985
L19175 3007
L19187 3018
L19209 3030
L19243 3030
" />
<path d="M18962 3030
L18962 2793
" />
<path d="M18962 3018
L18984 3030
L19029 3030
L19052 3018
L19063 3007
L19074 2985
L19074 2917
L19063 2895
L19052 2883
L19029 2872
L18984 2872
L18962 2883
" />
<path d="M18759 3018
L18782 3030
L18827 3030
L18849 3018
L18861 2996
L18861 2906
L18849 2883
L18827 2872
L18782 2872
L18759 2883
L18748 2906
L18748 2928
L18861 2951
" />
<path d="M18546 3030
L18546 2906
L18557 2883
L18579 2872
L18624 2872
L18647 2883
" />
<path d="M18546 3018
L18568 3030
L18624 3030
L18647 3018
L18658 2996
L18658 2973
L18647 2951
L18624 2940
L18568 2940
L18546 2928
" />
<path d="M18332 2872
L18332 3030
" />
<path d="M18433 2872
L18433 2996
L18422 3018
L18399 3030
L18366 3030
L18343 3018
L18332 3007
" />
<path d="M22561 3423
L22561 3187
" />
<path d="M22561 3412
L22584 3423
L22629 3423
L22651 3412
L22663 3401
L22674 3378
L22674 3311
L22663 3288
L22651 3277
L22629 3266
L22584 3266
L22561 3277
" />
<path d="M22359 3412
L22381 3423
L22426 3423
L22449 3412
L22460 3389
L22460 3299
L22449 3277
L22426 3266
L22381 3266
L22359 3277
L22348 3299
L22348 3322
L22460 3344
" />
<path d="M22269 3266
L22213 3423
L22156 3266
" />
<path d="M21920 3311
L21931 3299
L21954 3288
L21976 3288
L21999 3299
L22010 3311
L22021 3333
L22021 3356
L22010 3378
L21999 3389
L21976 3401
L21954 3401
L21931 3389
L21920 3378
" />
<path d="M21920 3288
L21920 3378
L21909 3389
L21898 3389
L21875 3378
L21864 3356
L21864 3299
L21886 3266
L21920 3243
L21965 3232
L22010 3243
L22044 3266
L22066 3299
L22078 3344
L22066 3389
L22044 3423
L22010 3446
L21965 3457
L21920 3446
L21886 3423
" />
<path d="M21763 3423
L21763 3187
" />
<path d="M21661 3423
L21661 3299
L21673 3277
L21695 3266
L21729 3266
L21751 3277
L21763 3288
" />
<path d="M21515 3423
L21538 3412
L21549 3401
L21560 3378
L21560 3311
L21549 3288
L21538 3277
L21515 3266
L21481 3266
L21459 3277
L21448 3288
L21436 3311
L21436 3378
L21448 3401
L21459 3412
L21481 3423
L21515 3423
" />
<path d="M21369 3266
L21279 3266
" />
<path d="M21335 3187
L21335 3389
L21324 3412
L21301 3423
L21279 3423
" />
<path d="M21200 3423
L21200 3187
" />
<path d="M21178 3333
L21110 3423
" />
<path d="M21110 3266
L21200 3356
" />
<path d="M20919 3412
L20942 3423
L20987 3423
L21009 3412
L21020 3389
L21020 3299
L21009 3277
L20987 3266
L20942 3266
L20919 3277
L20908 3299
L20908 3322
L21020 3344
" />
<path d="M20829 3266
L20773 3423
" />
<path d="M20717 3266
L20773 3423
L20795 3479
L20807 3491
L20829 3502
" />
<path d="M20638 3412
L20615 3423
L20570 3423
L20548 3412
L20537 3389
L20537 3378
L20548 3356
L20570 3344
L20604 3344
L20627 3333
L20638 3311
L20638 3299
L20627 3277
L20604 3266
L20570 3266
L20548 3277
" />
<path d="M20402 3423
L20424 3412
L20435 3401
L20447 3378
L20447 3311
L20435 3288
L20424 3277
L20402 3266
L20368 3266
L20345 3277
L20334 3288
L20323 3311
L20323 3378
L20334 3401
L20345 3412
L20368 3423
L20402 3423
" />
<path d="M20255 3266
L20165 3266
" />
<path d="M20222 3423
L20222 3221
L20210 3198
L20188 3187
L20165 3187
" />
<path d="M20120 3266
L20030 3266
" />
<path d="M20087 3187
L20087 3389
L20075 3412
L20053 3423
L20030 3423
" />
<path d="M19952 3401
L19940 3412
L19952 3423
L19963 3412
L19952 3401
L19952 3423
" />
<path d="M19839 3266
L19839 3423
" />
<path d="M19839 3288
L19828 3277
L19805 3266
L19772 3266
L19749 3277
L19738 3299
L19738 3423
" />
<path d="M19535 3412
L19558 3423
L19603 3423
L19625 3412
L19637 3389
L19637 3299
L19625 3277
L19603 3266
L19558 3266
L19535 3277
L19524 3299
L19524 3322
L19637 3344
" />
<path d="M19457 3266
L19367 3266
" />
<path d="M19423 3187
L19423 3389
L19412 3412
L19389 3423
L19367 3423
" />
</g>
<g style="fill:#840084; fill-opacity:0.0; 
stroke:#840084; stroke-width:47.2441; stroke-opacity:1; 
stroke-linecap:round; stroke-linejoin:round;">
<path d="M6321 8499
L6321 9023
" />
<path d="M6844 8499
L6321 8499
" />
<path d="M7344 8499
L7344 9546
" />
<path d="M7344 9546
L24368 9546
" />
<path d="M7344 8499
L24368 8499
" />
<path d="M24368 8499
L24368 9546
" />
<path d="M6321 499
L6321 1023
" />
<path d="M6844 499
L6321 499
" />
<path d="M7344 499
L7344 1546
" />
<path d="M7344 1546
L24368 1546
" />
<path d="M7344 499
L24368 499
" />
<path d="M24368 499
L24368 1546
" />
<g >
</g>
</g>
<g style="fill:#000000; fill-opacity:0.0; 
stroke:#000000; stroke-width:47.2441; stroke-opacity:1; 
stroke-linecap:round; stroke-linejoin:round;">
<g >
</g>
<g >
</g>
<g >
</g>
<g >
</g>
<g >
</g>
<g >
</g>
<g >
</g>
<g style="fill:#848400; fill-opacity:0.0; 
stroke:#848400; stroke-width:47.2441; stroke-opacity:1; 
stroke-linecap:round; stroke-linejoin:round;">
</g>
<g style="fill:#848400; fill-opacity:0.0; 
stroke:#848400; stroke-width:748.031; stroke-opacity:1; 
stroke-linecap:round; stroke-linejoin:round;">
<path d="M23844 7523
L23844 7523
" />
<path d="M23844 6523
L23844 6523
" />
<path d="M23844 5523
L23844 5523
" />
<path d="M23844 4523
L23844 4523
" />
<path d="M23844 3523
L23844 3523
" />
</g>
<g style="fill:#848400; fill-opacity:0.0; 
stroke:#848400; stroke-width:0; stroke-opacity:1; 
stroke-linecap:round; stroke-linejoin:round;">
</g>
<g style="fill:#848400; fill-opacity:1.0; 
stroke:#848400; stroke-width:0; stroke-opacity:1; 
stroke-linecap:round; stroke-linejoin:round;">
<path style="fill:#848400; fill-opacity:1.0; 
stroke:#848400; stroke-width:0; stroke-opacity:1; 
stroke-linecap:round; stroke-linejoin:round;fill-rule:evenodd;"
d="M 23470,2897
23470,2149
24218,2149
24218,2897
23470,2897
Z" /> 
</g>
<g >
</g>
<g style="fill:#848400; fill-opacity:1.0; 
stroke:#848400; stroke-width:0; stroke-opacity:1; 
stroke-linecap:round; stroke-linejoin:round;">
</g>
<g style="fill:#848400; fill-opacity:1.0; 
stroke:#848400; stroke-width:748.031; stroke-opacity:1; 
stroke-linecap:round; stroke-linejoin:round;">
</g>
<g style="fill:#848400; fill-opacity:0.0; 
stroke:#848400; stroke-width:748.031; stroke-opacity:1; 
stroke-linecap:round; stroke-linejoin:round;">
<path d="M23844 9023
L23844 9023
" />
<path d="M22844 9023
L22844 9023
" />
<path d="M21844 9023
L21844 9023
" />
<path d="M20844 9023
L20844 9023
" />
<path d="M19844 9023
L19844 9023
" />
<path d="M18844 9023
L18844 9023
" />
<path d="M17844 9023
L17844 9023
" />
<path d="M16844 9023
L16844 9023
" />
<path d="M15844 9023
L15844 9023
" />
<path d="M14844 9023
L14844 9023
" />
<path d="M13844 9023
L13844 9023
" />
<path d="M12844 9023
L12844 9023
" />
<path d="M11844 9023
L11844 9023
" />
<path d="M10844 9023
L10844 9023
" />
<path d="M9844 9023
L9844 9023
" />
<path d="M8844 9023
L8844 9023
" />
<path d="M7844 9023
L7844 9023
" />
</g>
<g style="fill:#848400; fill-opacity:0.0; 
stroke:#848400; stroke-width:0; stroke-opacity:1; 
stroke-linecap:round; stroke-linejoin:round;">
</g>
<g style="fill:#848400; fill-opacity:1.0; 
stroke:#848400; stroke-width:0; stroke-opacity:1; 
stroke-linecap:round; stroke-linejoin:round;">
<path style="fill:#848400; fill-opacity:1.0; 
stroke:#848400; stroke-width:0; stroke-opacity:1; 
stroke-linecap:round; stroke-linejoin:round;fill-rule:evenodd;"
d="M 6470,8649
7218,8649
7218,9397
6470,9397
6470,8649
Z" /> 
</g>
<g >
</g>
<g style="fill:#848400; fill-opacity:1.0; 
stroke:#848400; stroke-width:0; stroke-opacity:1; 
stroke-linecap:round; stroke-linejoin:round;">
</g>
<g style="fill:#848400; fill-opacity:1.0; 
stroke:#848400; stroke-width:748.031; stroke-opacity:1; 
stroke-linecap:round; stroke-linejoin:round;">
</g>
<g style="fill:#848400; fill-opacity:0.0; 
stroke:#848400; stroke-width:748.031; stroke-opacity:1; 
stroke-linecap:round; stroke-linejoin:round;">
<path d="M23844 1023
L23844 1023
" />
<path d="M22844 1023
L22844 1023
" />
<path d="M21844 1023
L21844 1023
" />
<path d="M20844 1023
L20844 1023
" />
<path d="M19844 1023
L19844 1023
" />
<path d="M18844 1023
L18844 1023
" />
<path d="M17844 1023
L17844 1023
" />
<path d="M16844 1023
L16844 1023
" />
<path d="M15844 1023
L15844 1023
" />
<path d="M14844 1023
L14844 1023
" />
<path d="M13844 1023
L13844 1023
" />
<path d="M12844 1023
L12844 1023
" />
<path d="M11844 1023
L11844 1023
" />
<path d="M10844 1023
L10844 1023
" />
<path d="M9844 1023
L9844 1023
" />
<path d="M8844 1023
L8844 1023
" />
<path d="M7844 1023
L7844 1023
" />
</g>
<g style="fill:#848400; fill-opacity:0.0; 
stroke:#848400; stroke-width:0; stroke-opacity:1; 
stroke-linecap:round; stroke-linejoin:round;">
</g>
<g style="fill:#848400; fill-opacity:1.0; 
stroke:#848400; stroke-width:0; stroke-opacity:1; 
stroke-linecap:round; stroke-linejoin:round;">
<path style="fill:#848400; fill-opacity:1.0; 
stroke:#848400; stroke-width:0; stroke-opacity:1; 
stroke-linecap:round; stroke-linejoin:round;fill-rule:evenodd;"
d="M 6470,649
7218,649
7218,1397
6470,1397
6470,649
Z" /> 
</g>
<g >
</g>
<g >
</g>
<g >
</g>
<g >
</g>
</g>
<g style="fill:#000000; fill-opacity:1.0; 
stroke:#000000; stroke-width:0; stroke-opacity:1; 
stroke-linecap:round; stroke-linejoin:round;">
<g >
</g>
<g >
</g>
<g >
</g>
<g >
</g>
<g >
</g>
<g >
</g>
<g >
</g>
<g style="fill:#848400; fill-opacity:1.0; 
stroke:#848400; stroke-width:0; stroke-opacity:1; 
stroke-linecap:round; stroke-linejoin:round;">
</g>
<g style="fill:#848400; fill-opacity:1.0; 
stroke:#848400; stroke-width:669.291; stroke-opacity:1; 
stroke-linecap:round; stroke-linejoin:round;">
</g>
<g style="fill:#848400; fill-opacity:0.0; 
stroke:#848400; stroke-width:669.291; stroke-opacity:1; 
stroke-linecap:round; stroke-linejoin:round;">
<path d="M23844 7523
L23844 7523
" />
<path d="M23844 6523
L23844 6523
" />
<path d="M23844 5523
L23844 5523
" />
<path d="M23844 4523
L23844 4523
" />
<path d="M23844 3523
L23844 3523
" />
</g>
<g style="fill:#848400; fill-opacity:0.0; 
stroke:#848400; stroke-width:0; stroke-opacity:1; 
stroke-linecap:round; stroke-linejoin:round;">
</g>
<g style="fill:#848400; fill-opacity:1.0; 
stroke:#848400; stroke-width:0; stroke-opacity:1; 
stroke-linecap:round; stroke-linejoin:round;">
<path style="fill:#848400; fill-opacity:1.0; 
stroke:#848400; stroke-width:0; stroke-opacity:1; 
stroke-linecap:round; stroke-linejoin:round;fill-rule:evenodd;"
d="M 23510,2857
23510,2188
24179,2188
24179,2857
23510,2857
Z" /> 
</g>
<g >
</g>
<g style="fill:#848400; fill-opacity:1.0; 
stroke:#848400; stroke-width:0; stroke-opacity:1; 
stroke-linecap:round; stroke-linejoin:round;">
</g>
<g style="fill:#848400; fill-opacity:1.0; 
stroke:#848400; stroke-width:669.291; stroke-opacity:1; 
stroke-linecap:round; stroke-linejoin:round;">
</g>
<g style="fill:#848400; fill-opacity:0.0; 
stroke:#848400; stroke-width:669.291; stroke-opacity:1; 
stroke-linecap:round; stroke-linejoin:round;">
<path d="M23844 9023
L23844 9023
" />
<path d="M22844 9023
L22844 9023
" />
<path d="M21844 9023
L21844 9023
" />
<path d="M20844 9023
L20844 9023
" />
<path d="M19844 9023
L19844 9023
" />
<path d="M18844 9023
L18844 9023
" />
<path d="M17844 9023
L17844 9023
" />
<path d="M16844 9023
L16844 9023
" />
<path d="M15844 9023
L15844 9023
" />
<path d="M14844 9023
L14844 9023
" />
<path d="M13844 9023
L13844 9023
" />
<path d="M12844 9023
L12844 9023
" />
<path d="M11844 9023
L11844 9023
" />
<path d="M10844 9023
L10844 9023
" />
<path d="M9844 9023
L9844 9023
" />
<path d="M8844 9023
L8844 9023
" />
<path d="M7844 9023
L7844 9023
" />
</g>
<g style="fill:#848400; fill-opacity:0.0; 
stroke:#848400; stroke-width:0; stroke-opacity:1; 
stroke-linecap:round; stroke-linejoin:round;">
</g>
<g style="fill:#848400; fill-opacity:1.0; 
stroke:#848400; stroke-width:0; stroke-opacity:1; 
stroke-linecap:round; stroke-linejoin:round;">
<path style="fill:#848400; fill-opacity:1.0; 
stroke:#848400; stroke-width:0; stroke-opacity:1; 
stroke-linecap:round; stroke-linejoin:round;fill-rule:evenodd;"
d="M 6510,8688
7179,8688
7179,9357
6510,9357
6510,8688
Z" /> 
</g>
<g >
</g>
<g style="fill:#848400; fill-opacity:1.0; 
stroke:#848400; stroke-width:0; stroke-opacity:1; 
stroke-linecap:round; stroke-linejoin:round;">
</g>
<g style="fill:#848400; fill-opacity:1.0; 
stroke:#848400; stroke-width:669.291; stroke-opacity:1; 
stroke-linecap:round; stroke-linejoin:round;">
</g>
<g style="fill:#848400; fill-opacity:0.0; 
stroke:#848400; stroke-width:669.291; stroke-opacity:1; 
stroke-linecap:round; stroke-linejoin:round;">
<path d="M23844 1023
L23844 1023
" />
<path d="M22844 1023
L22844 1023
" />
<path d="M21844 1023
L21844 1023
" />
<path d="M20844 1023
L20844 1023
" />
<path d="M19844 1023
L19844 1023
" />
<path d="M18844 1023
L18844 1023
" />
<path d="M17844 1023
L17844 1023
" />
<path d="M16844 1023
L16844 1023
" />
<path d="M15844 1023
L15844 1023
" />
<path d="M14844 1023
L14844 1023
" />
<path d="M13844 1023
L13844 1023
" />
<path d="M12844 1023
L12844 1023
" />
<path d="M11844 1023
L11844 1023
" />
<path d="M10844 1023
L10844 1023
" />
<path d="M9844 1023
L9844 1023
" />
<path d="M8844 1023
L8844 1023
" />
<path d="M7844 1023
L7844 1023
" />
</g>
<g style="fill:#848400; fill-opacity:0.0; 
stroke:#848400; stroke-width:0; stroke-opacity:1; 
stroke-linecap:round; stroke-linejoin:round;">
</g>
<g style="fill:#848400; fill-opacity:1.0; 
stroke:#848400; stroke-width:0; stroke-opacity:1; 
stroke-linecap:round; stroke-linejoin:round;">
<path style="fill:#848400; fill-opacity:1.0; 
stroke:#848400; stroke-width:0; stroke-opacity:1; 
stroke-linecap:round; stroke-linejoin:round;fill-rule:evenodd;"
d="M 6510,688
7179,688
7179,1357
6510,1357
6510,688
Z" /> 
</g>
<g >
</g>
<g >
</g>
<g style="fill:#C2C2C2; fill-opacity:1.0; 
stroke:#C2C2C2; stroke-width:0; stroke-opacity:1; 
stroke-linecap:round; stroke-linejoin:round;">
<circle cx="19081.1" cy="5920.79" r="157.48" /> 
</g>
<g style="fill:#C2C2C2; fill-opacity:1.0; 
stroke:#C2C2C2; stroke-width:39.3701; stroke-opacity:1; 
stroke-linecap:round; stroke-linejoin:round;">
</g>
<g style="fill:#C2C2C2; fill-opacity:1.0; 
stroke:#C2C2C2; stroke-width:0; stroke-opacity:1; 
stroke-linecap:round; stroke-linejoin:round;">
<circle cx="11844.9" cy="2623.15" r="157.48" /> 
</g>
<g style="fill:#C2C2C2; fill-opacity:1.0; 
stroke:#C2C2C2; stroke-width:39.3701; stroke-opacity:1; 
stroke-linecap:round; stroke-linejoin:round;">
</g>
<g style="fill:#C2C2C2; fill-opacity:1.0; 
stroke:#C2C2C2; stroke-width:0; stroke-opacity:1; 
stroke-linecap:round; stroke-linejoin:round;">
<circle cx="8608.66" cy="5842.05" r="157.48" /> 
</g>
<g style="fill:#C2C2C2; fill-opacity:1.0; 
stroke:#C2C2C2; stroke-width:39.3701; stroke-opacity:1; 
stroke-linecap:round; stroke-linejoin:round;">
</g>
<g style="fill:#C2C2C2; fill-opacity:1.0; 
stroke:#C2C2C2; stroke-width:0; stroke-opacity:1; 
stroke-linecap:round; stroke-linejoin:round;">
<circle cx="8136.22" cy="3952.29" r="157.48" /> 
</g>
<g style="fill:#C2C2C2; fill-opacity:1.0; 
stroke:#C2C2C2; stroke-width:39.3701; stroke-opacity:1; 
stroke-linecap:round; stroke-linejoin:round;">
</g>
<g style="fill:#C2C2C2; fill-opacity:1.0; 
stroke:#C2C2C2; stroke-width:0; stroke-opacity:1; 
stroke-linecap:round; stroke-linejoin:round;">
<circle cx="16482.7" cy="4818.43" r="157.48" /> 
</g>
<g style="fill:#C2C2C2; fill-opacity:1.0; 
stroke:#C2C2C2; stroke-width:39.3701; stroke-opacity:1; 
stroke-linecap:round; stroke-linejoin:round;">
</g>
<g style="fill:#C2C2C2; fill-opacity:1.0; 
stroke:#C2C2C2; stroke-width:0; stroke-opacity:1; 
stroke-linecap:round; stroke-linejoin:round;">
<circle cx="15616.5" cy="3479.85" r="157.48" /> 
</g>
<g style="fill:#C2C2C2; fill-opacity:1.0; 
stroke:#C2C2C2; stroke-width:39.3701; stroke-opacity:1; 
stroke-linecap:round; stroke-linejoin:round;">
</g>
<g style="fill:#C2C2C2; fill-opacity:1.0; 
stroke:#C2C2C2; stroke-width:0; stroke-opacity:1; 
stroke-linecap:round; stroke-linejoin:round;">
<circle cx="14199.2" cy="6550.71" r="157.48" /> 
</g>
<g style="fill:#C2C2C2; fill-opacity:1.0; 
stroke:#C2C2C2; stroke-width:39.3701; stroke-opacity:1; 
stroke-linecap:round; stroke-linejoin:round;">
</g>
<g style="fill:#C2C2C2; fill-opacity:1.0; 
stroke:#C2C2C2; stroke-width:0; stroke-opacity:1; 
stroke-linecap:round; stroke-linejoin:round;">
<circle cx="16344.9" cy="7923.15" r="157.48" /> 
</g>
<g style="fill:#C2C2C2; fill-opacity:1.0; 
stroke:#C2C2C2; stroke-width:39.3701; stroke-opacity:1; 
stroke-linecap:round; stroke-linejoin:round;">
</g>
<g style="fill:#C2C2C2; fill-opacity:1.0; 
stroke:#C2C2C2; stroke-width:0; stroke-opacity:1; 
stroke-linecap:round; stroke-linejoin:round;">
<circle cx="12144.9" cy="7923.15" r="157.48" /> 
</g>
<g style="fill:#C2C2C2; fill-opacity:1.0; 
stroke:#C2C2C2; stroke-width:39.3701; stroke-opacity:1; 
stroke-linecap:round; stroke-linejoin:round;">
</g>
<g style="fill:#C2C2C2; fill-opacity:1.0; 
stroke:#C2C2C2; stroke-width:0; stroke-opacity:1; 
stroke-linecap:round; stroke-linejoin:round;">
<circle cx="17344.9" cy="2023.15" r="157.48" /> 
</g>
<g style="fill:#C2C2C2; fill-opacity:1.0; 
stroke:#C2C2C2; stroke-width:39.3701; stroke-opacity:1; 
stroke-linecap:round; stroke-linejoin:round;">
</g>
<g style="fill:#C2C2C2; fill-opacity:1.0; 
stroke:#C2C2C2; stroke-width:0; stroke-opacity:1; 
stroke-linecap:round; stroke-linejoin:round;">
<circle cx="9396.06" cy="4660.95" r="118.11" /> 
</g>
<g style="fill:#C2C2C2; fill-opacity:1.0; 
stroke:#C2C2C2; stroke-width:39.3701; stroke-opacity:1; 
stroke-linecap:round; stroke-linejoin:round;">
</g>
<g style="fill:#C2C2C2; fill-opacity:1.0; 
stroke:#C2C2C2; stroke-width:0; stroke-opacity:1; 
stroke-linecap:round; stroke-linejoin:round;">
<circle cx="11244.9" cy="3123.15" r="157.48" /> 
</g>
<g style="fill:#C2C2C2; fill-opacity:1.0; 
stroke:#C2C2C2; stroke-width:39.3701; stroke-opacity:1; 
stroke-linecap:round; stroke-linejoin:round;">
</g>
<g style="fill:#C2C2C2; fill-opacity:1.0; 
stroke:#C2C2C2; stroke-width:0; stroke-opacity:1; 
stroke-linecap:round; stroke-linejoin:round;">
<circle cx="16944.9" cy="2623.15" r="157.48" /> 
</g>
<g style="fill:#C2C2C2; fill-opacity:1.0; 
stroke:#C2C2C2; stroke-width:39.3701; stroke-opacity:1; 
stroke-linecap:round; stroke-linejoin:round;">
</g>
<g style="fill:#C2C2C2; fill-opacity:1.0; 
stroke:#C2C2C2; stroke-width:0; stroke-opacity:1; 
stroke-linecap:round; stroke-linejoin:round;">
<circle cx="18144.9" cy="5123.16" r="157.48" /> 
</g>
<g style="fill:#C2C2C2; fill-opacity:1.0; 
stroke:#C2C2C2; stroke-width:39.3701; stroke-opacity:1; 
stroke-linecap:round; stroke-linejoin:round;">
</g>
<g style="fill:#C2C2C2; fill-opacity:1.0; 
stroke:#C2C2C2; stroke-width:0; stroke-opacity:1; 
stroke-linecap:round; stroke-linejoin:round;">
<circle cx="15444.9" cy="5023.16" r="157.48" /> 
</g>
<g style="fill:#C2C2C2; fill-opacity:1.0; 
stroke:#C2C2C2; stroke-width:39.3701; stroke-opacity:1; 
stroke-linecap:round; stroke-linejoin:round;">
</g>
<g style="fill:#C2C2C2; fill-opacity:1.0; 
stroke:#C2C2C2; stroke-width:0; stroke-opacity:1; 
stroke-linecap:round; stroke-linejoin:round;">
<circle cx="17844.9" cy="7323.15" r="118.11" /> 
</g>
<g style="fill:#C2C2C2; fill-opacity:1.0; 
stroke:#C2C2C2; stroke-width:39.3701; stroke-opacity:1; 
stroke-linecap:round; stroke-linejoin:round;">
</g>
<g style="fill:#C2C2C2; fill-opacity:1.0; 
stroke:#C2C2C2; stroke-width:0; stroke-opacity:1; 
stroke-linecap:round; stroke-linejoin:round;">
<circle cx="17344.9" cy="7423.15" r="118.11" /> 
</g>
<g style="fill:#C2C2C2; fill-opacity:1.0; 
stroke:#C2C2C2; stroke-width:39.3701; stroke-opacity:1; 
stroke-linecap:round; stroke-linejoin:round;">
</g>
<g style="fill:#C2C2C2; fill-opacity:1.0; 
stroke:#C2C2C2; stroke-width:0; stroke-opacity:1; 
stroke-linecap:round; stroke-linejoin:round;">
<circle cx="16444.9" cy="5723.16" r="118.11" /> 
</g>
<g style="fill:#C2C2C2; fill-opacity:1.0; 
stroke:#C2C2C2; stroke-width:39.3701; stroke-opacity:1; 
stroke-linecap:round; stroke-linejoin:round;">
</g>
<g >
</g>
<g style="fill:#008400; fill-opacity:1.0; 
stroke:#008400; stroke-width:39.3701; stroke-opacity:1; 
stroke-linecap:round; stroke-linejoin:round;">
</g>
<g style="fill:#008400; fill-opacity:1.0; 
stroke:#008400; stroke-width:78.7402; stroke-opacity:1; 
stroke-linecap:round; stroke-linejoin:round;">
</g>
<g style="fill:#008400; fill-opacity:0.0; 
stroke:#008400; stroke-width:78.7402; stroke-opacity:1; 
stroke-linecap:round; stroke-linejoin:round;">
<path d="M9396 4660
L9707 4660
" />
<path d="M9707 4660
L11244 3123
" />
<path d="M11244 3123
L16444 3123
" />
<path d="M16787 2780
L16944 2623
" />
<path d="M16444 3123
L16787 2780
" />
<path d="M16944 2623
L18144 3823
" />
<path d="M18144 3823
L18144 4900
" />
<path d="M18144 4900
L18144 5123
" />
<path d="M6844 609
L7031 423
" />
<path d="M6844 1023
L6844 609
" />
<path d="M7031 423
L24079 423
" />
<path d="M24079 423
L24444 788
" />
<path d="M24444 788
L24444 2923
" />
<path d="M24444 2923
L23844 3523
" />
</g>
<g style="fill:#008400; fill-opacity:0.0; 
stroke:#008400; stroke-width:59.0551; stroke-opacity:1; 
stroke-linecap:round; stroke-linejoin:round;">
<path d="M15444 5245
L15444 5023
" />
<path d="M15444 6223
L15444 5245
" />
<path d="M17079 7857
L15444 6223
" />
<path d="M23844 7523
L23510 7857
" />
<path d="M23510 7857
L17079 7857
" />
<path d="M17962 7205
L17844 7323
" />
<path d="M18644 6523
L17962 7205
" />
<path d="M23844 6523
L18644 6523
" />
<path d="M23844 5523
L19077 5523
" />
<path d="M19077 5523
L17344 7256
" />
<path d="M17344 7256
L17344 7423
" />
<path d="M18277 5723
L16611 5723
" />
<path d="M16611 5723
L16444 5723
" />
<path d="M23844 4523
L19477 4523
" />
<path d="M19477 4523
L18277 5723
" />
</g>
<g >
</g>
<g style="fill:#008400; fill-opacity:0.0; 
stroke:#008400; stroke-width:59.0551; stroke-opacity:1; 
stroke-linecap:round; stroke-linejoin:round;">
</g>
<g style="fill:#008400; fill-opacity:1.0; 
stroke:#008400; stroke-width:59.0551; stroke-opacity:1; 
stroke-linecap:round; stroke-linejoin:round;">
<path style="fill:#008400; fill-opacity:1.0; 
stroke:#008400; stroke-width:59.0551; stroke-opacity:1; 
stroke-linecap:round; stroke-linejoin:round;fill-rule:evenodd;"
d="M 24016,158
24180,208
24332,289
24465,397
24575,530
24657,681
24708,845
24726,1022
24726,1023
24726,9017
24709,9194
24659,9359
24578,9510
24470,9644
24337,9753
24186,9835
24022,9886
23845,9905
23844,9905
6850,9905
6673,9887
6509,9837
6357,9757
6223,9648
6114,9515
6032,9364
6030,9357
6361,9357
6364,9386
6373,9414
6386,9440
6405,9462
6427,9481
6453,9494
6481,9503
6510,9506
6778,9505
6815,9468
6815,9052
6874,9052
6874,9468
6911,9505
7179,9506
7208,9503
7236,9494
7261,9481
7284,9462
7302,9440
7316,9414
7325,9386
7327,9357
7327,9089
7290,9052
6874,9052
6815,9052
6399,9052
6362,9089
6361,9357
6030,9357
5981,9200
5962,9023
5962,9023
7399,9023
7408,9109
7433,9193
7474,9270
7530,9337
7597,9393
7674,9434
7758,9459
7823,9466
7866,9466
7931,9459
8015,9434
8092,9393
8159,9337
8214,9270
8256,9193
8281,9109
8289,9023
8399,9023
8408,9109
8433,9193
8474,9270
8530,9337
8597,9393
8674,9434
8758,9459
8823,9466
8866,9466
8931,9459
9015,9434
9092,9393
9159,9337
9214,9270
9256,9193
9281,9109
9289,9023
9399,9023
9408,9109
9433,9193
9474,9270
9530,9337
9597,9393
9674,9434
9758,9459
9823,9466
9866,9466
9931,9459
10015,9434
10092,9393
10159,9337
10214,9270
10256,9193
10281,9109
10289,9023
10399,9023
10408,9109
10433,9193
10474,9270
10530,9337
10597,9393
10674,9434
10758,9459
10823,9466
10866,9466
10931,9459
11015,9434
11092,9393
11159,9337
11214,9270
11256,9193
11281,9109
11289,9023
11399,9023
11408,9109
11433,9193
11474,9270
11530,9337
11597,9393
11674,9434
11758,9459
11823,9466
11866,9466
11931,9459
12015,9434
12092,9393
12159,9337
12214,9270
12256,9193
12281,9109
12289,9023
12399,9023
12408,9109
12433,9193
12474,9270
12530,9337
12597,9393
12674,9434
12758,9459
12823,9466
12866,9466
12931,9459
13015,9434
13092,9393
13159,9337
13214,9270
13256,9193
13281,9109
13289,9023
13399,9023
13408,9109
13433,9193
13474,9270
13530,9337
13597,9393
13674,9434
13758,9459
13823,9466
13866,9466
13931,9459
14015,9434
14092,9393
14159,9337
14214,9270
14256,9193
14281,9109
14289,9023
14399,9023
14408,9109
14433,9193
14474,9270
14530,9337
14597,9393
14674,9434
14758,9459
14823,9466
14866,9466
14931,9459
15015,9434
15092,9393
15159,9337
15214,9270
15256,9193
15281,9109
15289,9023
15399,9023
15408,9109
15433,9193
15474,9270
15530,9337
15597,9393
15674,9434
15758,9459
15823,9466
15866,9466
15931,9459
16015,9434
16092,9393
16159,9337
16214,9270
16256,9193
16281,9109
16289,9023
16399,9023
16408,9109
16433,9193
16474,9270
16530,9337
16597,9393
16674,9434
16758,9459
16823,9466
16866,9466
16931,9459
17015,9434
17092,9393
17159,9337
17214,9270
17256,9193
17281,9109
17289,9023
17399,9023
17408,9109
17433,9193
17474,9270
17530,9337
17597,9393
17674,9434
17758,9459
17823,9466
17866,9466
17931,9459
18015,9434
18092,9393
18159,9337
18214,9270
18256,9193
18281,9109
18289,9023
18399,9023
18408,9109
18433,9193
18474,9270
18530,9337
18597,9393
18674,9434
18758,9459
18823,9466
18866,9466
18931,9459
19015,9434
19092,9393
19159,9337
19214,9270
19256,9193
19281,9109
19289,9023
19399,9023
19408,9109
19433,9193
19474,9270
19530,9337
19597,9393
19674,9434
19758,9459
19823,9466
19866,9466
19931,9459
20015,9434
20092,9393
20159,9337
20214,9270
20256,9193
20281,9109
20289,9023
20399,9023
20408,9109
20433,9193
20474,9270
20530,9337
20597,9393
20674,9434
20758,9459
20823,9466
20866,9466
20931,9459
21015,9434
21092,9393
21159,9337
21214,9270
21256,9193
21281,9109
21289,9023
21399,9023
21408,9109
21433,9193
21474,9270
21530,9337
21597,9393
21674,9434
21758,9459
21823,9466
21866,9466
21931,9459
22015,9434
22092,9393
22159,9337
22214,9270
22256,9193
22281,9109
22289,9023
22399,9023
22408,9109
22433,9193
22474,9270
22530,9337
22597,9393
22674,9434
22758,9459
22823,9466
22866,9466
22931,9459
23015,9434
23092,9393
23159,9337
23214,9270
23256,9193
23281,9109
23289,9023
23399,9023
23408,9109
23433,9193
23474,9270
23530,9337
23597,9393
23674,9434
23758,9459
23823,9466
23866,9466
23931,9459
24015,9434
24092,9393
24159,9337
24214,9270
24256,9193
24281,9109
24289,9023
24281,8936
24256,8852
24214,8775
24159,8708
24092,8653
24015,8611
23931,8586
23866,8580
23823,8580
23758,8586
23674,8611
23597,8653
23530,8708
23474,8775
23433,8852
23408,8936
23399,9023
23289,9023
23281,8936
23256,8852
23214,8775
23159,8708
23092,8653
23015,8611
22931,8586
22866,8580
22823,8580
22758,8586
22674,8611
22597,8653
22530,8708
22474,8775
22433,8852
22408,8936
22399,9023
22289,9023
22281,8936
22256,8852
22214,8775
22159,8708
22092,8653
22015,8611
21931,8586
21866,8580
21823,8580
21758,8586
21674,8611
21597,8653
21530,8708
21474,8775
21433,8852
21408,8936
21399,9023
21289,9023
21281,8936
21256,8852
21214,8775
21159,8708
21092,8653
21015,8611
20931,8586
20866,8580
20823,8580
20758,8586
20674,8611
20597,8653
20530,8708
20474,8775
20433,8852
20408,8936
20399,9023
20289,9023
20281,8936
20256,8852
20214,8775
20159,8708
20092,8653
20015,8611
19931,8586
19866,8580
19823,8580
19758,8586
19674,8611
19597,8653
19530,8708
19474,8775
19433,8852
19408,8936
19399,9023
19289,9023
19281,8936
19256,8852
19214,8775
19159,8708
19092,8653
19015,8611
18931,8586
18866,8580
18823,8580
18758,8586
18674,8611
18597,8653
18530,8708
18474,8775
18433,8852
18408,8936
18399,9023
18289,9023
18281,8936
18256,8852
18214,8775
18159,8708
18092,8653
18015,8611
17931,8586
17866,8580
17823,8580
17758,8586
17674,8611
17597,8653
17530,8708
17474,8775
17433,8852
17408,8936
17399,9023
17289,9023
17281,8936
17256,8852
17214,8775
17159,8708
17092,8653
17015,8611
16931,8586
16866,8580
16823,8580
16758,8586
16674,8611
16597,8653
16530,8708
16474,8775
16433,8852
16408,8936
16399,9023
16289,9023
16281,8936
16256,8852
16214,8775
16159,8708
16092,8653
16015,8611
15931,8586
15866,8580
15823,8580
15758,8586
15674,8611
15597,8653
15530,8708
15474,8775
15433,8852
15408,8936
15399,9023
15289,9023
15281,8936
15256,8852
15214,8775
15159,8708
15092,8653
15015,8611
14931,8586
14866,8580
14823,8580
14758,8586
14674,8611
14597,8653
14530,8708
14474,8775
14433,8852
14408,8936
14399,9023
14289,9023
14281,8936
14256,8852
14214,8775
14159,8708
14092,8653
14015,8611
13931,8586
13866,8580
13823,8580
13758,8586
13674,8611
13597,8653
13530,8708
13474,8775
13433,8852
13408,8936
13399,9023
13289,9023
13281,8936
13256,8852
13214,8775
13159,8708
13092,8653
13015,8611
12931,8586
12866,8580
12823,8580
12758,8586
12674,8611
12597,8653
12530,8708
12474,8775
12433,8852
12408,8936
12399,9023
12289,9023
12281,8936
12256,8852
12214,8775
12159,8708
12092,8653
12015,8611
11931,8586
11866,8580
11823,8580
11758,8586
11674,8611
11597,8653
11530,8708
11474,8775
11433,8852
11408,8936
11399,9023
11289,9023
11281,8936
11256,8852
11214,8775
11159,8708
11092,8653
11015,8611
10931,8586
10866,8580
10823,8580
10758,8586
10674,8611
10597,8653
10530,8708
10474,8775
10433,8852
10408,8936
10399,9023
10289,9023
10281,8936
10256,8852
10214,8775
10159,8708
10092,8653
10015,8611
9931,8586
9866,8580
9823,8580
9758,8586
9674,8611
9597,8653
9530,8708
9474,8775
9433,8852
9408,8936
9399,9023
9289,9023
9281,8936
9256,8852
9214,8775
9159,8708
9092,8653
9015,8611
8931,8586
8866,8580
8823,8580
8758,8586
8674,8611
8597,8653
8530,8708
8474,8775
8433,8852
8408,8936
8399,9023
8289,9023
8281,8936
8256,8852
8214,8775
8159,8708
8092,8653
8015,8611
7931,8586
7866,8580
7823,8580
7758,8586
7674,8611
7597,8653
7530,8708
7474,8775
7433,8852
7408,8936
7399,9023
5962,9023
5962,9022
5962,8688
6361,8688
6362,8956
6399,8993
6815,8993
6815,8577
6874,8577
6874,8993
7290,8993
7327,8956
7327,8688
7325,8659
7316,8631
7302,8606
7284,8583
7261,8565
7236,8551
7208,8543
7179,8540
6911,8540
6874,8577
6815,8577
6778,8540
6510,8540
6481,8543
6453,8551
6427,8565
6405,8583
6386,8606
6373,8631
6364,8659
6361,8688
5962,8688
5962,4996
15179,4996
15179,5049
15189,5100
15209,5149
15238,5192
15275,5229
15307,5250
15307,5252
15307,5252
15307,6216
15306,6223
15307,6229
15309,6250
15316,6276
15329,6300
15346,6321
15352,6325
16977,7950
16981,7955
17002,7972
17026,7985
17052,7993
17072,7995
17072,7995
17079,7996
17086,7995
23503,7995
23510,7996
23517,7995
23517,7995
23537,7993
23563,7985
23587,7972
23608,7955
23612,7950
23644,7918
23674,7934
23758,7959
23823,7966
23866,7966
23931,7959
24015,7934
24092,7893
24159,7837
24214,7770
24256,7693
24281,7609
24289,7523
24281,7436
24256,7352
24214,7275
24159,7208
24092,7153
24015,7111
23931,7086
23866,7080
23823,7080
23758,7086
23674,7111
23597,7153
23530,7208
23474,7275
23433,7352
23408,7436
23399,7523
23408,7609
23433,7693
23447,7720
17136,7720
16817,7400
17118,7400
17118,7445
17127,7489
17144,7530
17169,7567
17200,7598
17237,7623
17278,7640
17322,7649
17367,7649
17410,7640
17452,7623
17489,7598
17520,7567
17545,7530
17562,7489
17571,7445
17571,7400
17562,7357
17545,7315
17535,7300
17618,7300
17618,7345
17627,7389
17644,7430
17669,7467
17700,7498
17737,7523
17778,7540
17822,7549
17867,7549
17910,7540
17952,7523
17989,7498
18020,7467
18045,7430
18062,7389
18071,7345
18071,7300
18069,7293
18701,6660
23423,6660
23433,6693
23474,6770
23530,6837
23597,6893
23674,6934
23758,6959
23823,6966
23866,6966
23931,6959
24015,6934
24092,6893
24159,6837
24214,6770
24256,6693
24281,6609
24289,6523
24281,6436
24256,6352
24214,6275
24159,6208
24092,6153
24015,6111
23931,6086
23866,6080
23823,6080
23758,6086
23674,6111
23597,6153
23530,6208
23474,6275
23433,6352
23423,6385
18651,6385
18644,6384
18638,6385
18638,6385
18617,6387
18591,6395
18567,6408
18546,6425
18542,6430
17874,7098
17867,7096
17822,7096
17778,7105
17737,7122
17700,7147
17669,7178
17644,7215
17627,7257
17618,7300
17535,7300
17520,7278
17518,7276
19134,5660
23423,5660
23433,5693
23474,5770
23530,5837
23597,5893
23674,5934
23758,5959
23823,5966
23866,5966
23931,5959
24015,5934
24092,5893
24159,5837
24214,5770
24256,5693
24281,5609
24289,5523
24281,5436
24256,5352
24214,5275
24159,5208
24092,5153
24015,5111
23931,5086
23866,5080
23823,5080
23758,5086
23674,5111
23597,5153
23530,5208
23474,5275
23433,5352
23423,5385
19084,5385
19077,5384
19071,5385
19050,5387
19024,5395
19000,5408
18979,5425
18975,5430
17252,7153
17246,7158
17229,7179
17216,7203
17213,7215
17209,7229
17207,7242
17200,7247
17169,7278
17144,7315
17127,7357
17118,7400
16817,7400
15582,6166
15582,5700
16218,5700
16218,5745
16227,5789
16244,5830
16269,5867
16300,5898
16337,5923
16378,5940
16422,5949
16467,5949
16510,5940
16552,5923
16589,5898
16620,5867
16625,5860
18271,5860
18277,5861
18284,5860
18284,5860
18304,5858
18330,5851
18354,5838
18375,5821
18380,5815
19534,4660
23423,4660
23433,4693
23474,4770
23530,4837
23597,4893
23674,4934
23758,4959
23823,4966
23866,4966
23931,4959
24015,4934
24092,4893
24159,4837
24214,4770
24256,4693
24281,4609
24289,4523
24281,4436
24256,4352
24214,4275
24159,4208
24092,4153
24015,4111
23931,4086
23866,4080
23823,4080
23758,4086
23674,4111
23597,4153
23530,4208
23474,4275
23433,4352
23423,4385
19484,4385
19477,4384
19450,4387
19442,4389
19424,4395
19400,4408
19379,4425
19375,4430
18220,5585
16625,5585
16620,5578
16589,5547
16552,5522
16510,5505
16467,5496
16422,5496
16378,5505
16337,5522
16300,5547
16269,5578
16244,5615
16227,5657
16218,5700
15582,5700
15582,5250
15614,5229
15651,5192
15680,5149
15700,5100
15710,5049
15710,4996
15700,4945
15680,4897
15651,4853
15614,4816
15570,4787
15522,4767
15471,4757
15418,4757
15367,4767
15319,4787
15275,4816
15238,4853
15209,4897
15189,4945
15179,4996
5962,4996
5962,4638
9169,4638
9169,4683
9178,4726
9195,4768
9220,4805
9251,4836
9288,4861
9330,4878
9373,4887
9418,4887
9462,4878
9503,4861
9540,4836
9568,4808
9699,4808
9707,4809
9714,4808
9714,4808
9736,4806
9763,4798
9789,4784
9811,4765
9816,4760
11193,3383
11218,3388
11271,3388
11322,3378
11370,3358
11414,3329
11451,3292
11465,3270
16437,3270
16444,3271
16452,3270
16452,3270
16473,3268
16501,3260
16527,3246
16549,3228
16554,3222
16893,2883
16918,2888
16971,2888
16996,2883
17997,3884
17997,4893
17997,4893
17997,4902
17975,4916
17938,4953
17909,4997
17889,5045
17879,5096
17879,5149
17889,5200
17909,5249
17938,5292
17975,5329
18019,5358
18067,5378
18118,5388
18171,5388
18222,5378
18270,5358
18314,5329
18351,5292
18380,5249
18400,5200
18410,5149
18410,5096
18400,5045
18380,4997
18351,4953
18314,4916
18292,4902
18292,3830
18293,3823
18292,3815
18290,3794
18281,3766
18268,3740
18249,3718
18244,3713
17388,2857
23361,2857
23364,2886
23373,2914
23386,2940
23405,2962
23427,2981
23453,2994
23481,3003
23510,3006
23778,3005
23815,2968
23815,2552
23399,2552
23362,2589
23361,2857
17388,2857
17205,2675
17210,2649
17210,2596
17200,2545
17180,2497
17151,2453
17114,2416
17070,2387
17022,2367
16971,2357
16918,2357
16867,2367
16819,2387
16775,2416
16738,2453
16709,2497
16689,2545
16679,2596
16679,2649
16684,2675
16383,2975
11465,2975
11451,2953
11414,2916
11370,2887
11322,2867
11271,2857
11218,2857
11167,2867
11119,2887
11075,2916
11038,2953
11009,2997
10989,3045
10979,3096
10979,3149
10984,3175
9645,4513
9568,4513
9540,4485
9503,4460
9462,4443
9418,4434
9373,4434
9330,4443
9288,4460
9251,4485
9220,4516
9195,4553
9178,4594
9169,4638
5962,4638
5962,2188
23361,2188
23362,2456
23399,2493
23815,2493
23815,2077
23778,2040
23510,2040
23481,2043
23453,2051
23427,2065
23405,2083
23386,2106
23373,2131
23364,2159
23361,2188
5962,2188
5962,1028
5980,851
6029,688
6401,688
6401,1357
6403,1379
6409,1399
6419,1418
6433,1434
6449,1448
6468,1458
6489,1464
6510,1466
7179,1466
7200,1464
7221,1458
7239,1448
7256,1434
7269,1418
7280,1399
7286,1379
7288,1357
7288,1023
7399,1023
7408,1109
7433,1193
7474,1270
7530,1337
7597,1393
7674,1434
7758,1459
7823,1466
7866,1466
7931,1459
8015,1434
8092,1393
8159,1337
8214,1270
8256,1193
8281,1109
8289,1023
8399,1023
8408,1109
8433,1193
8474,1270
8530,1337
8597,1393
8674,1434
8758,1459
8823,1466
8866,1466
8931,1459
9015,1434
9092,1393
9159,1337
9214,1270
9256,1193
9281,1109
9289,1023
9399,1023
9408,1109
9433,1193
9474,1270
9530,1337
9597,1393
9674,1434
9758,1459
9823,1466
9866,1466
9931,1459
10015,1434
10092,1393
10159,1337
10214,1270
10256,1193
10281,1109
10289,1023
10399,1023
10408,1109
10433,1193
10474,1270
10530,1337
10597,1393
10674,1434
10758,1459
10823,1466
10866,1466
10931,1459
11015,1434
11092,1393
11159,1337
11214,1270
11256,1193
11281,1109
11289,1023
11399,1023
11408,1109
11433,1193
11474,1270
11530,1337
11597,1393
11674,1434
11758,1459
11823,1466
11866,1466
11931,1459
12015,1434
12092,1393
12159,1337
12214,1270
12256,1193
12281,1109
12289,1023
12399,1023
12408,1109
12433,1193
12474,1270
12530,1337
12597,1393
12674,1434
12758,1459
12823,1466
12866,1466
12931,1459
13015,1434
13092,1393
13159,1337
13214,1270
13256,1193
13281,1109
13289,1023
13399,1023
13408,1109
13433,1193
13474,1270
13530,1337
13597,1393
13674,1434
13758,1459
13823,1466
13866,1466
13931,1459
14015,1434
14092,1393
14159,1337
14214,1270
14256,1193
14281,1109
14289,1023
14399,1023
14408,1109
14433,1193
14474,1270
14530,1337
14597,1393
14674,1434
14758,1459
14823,1466
14866,1466
14931,1459
15015,1434
15092,1393
15159,1337
15214,1270
15256,1193
15281,1109
15289,1023
15399,1023
15408,1109
15433,1193
15474,1270
15530,1337
15597,1393
15674,1434
15758,1459
15823,1466
15866,1466
15931,1459
16015,1434
16092,1393
16159,1337
16214,1270
16256,1193
16281,1109
16289,1023
16399,1023
16408,1109
16433,1193
16474,1270
16530,1337
16597,1393
16674,1434
16758,1459
16823,1466
16866,1466
16931,1459
17015,1434
17092,1393
17159,1337
17214,1270
17256,1193
17281,1109
17289,1023
17399,1023
17408,1109
17433,1193
17474,1270
17530,1337
17597,1393
17674,1434
17758,1459
17823,1466
17866,1466
17931,1459
18015,1434
18092,1393
18159,1337
18214,1270
18256,1193
18281,1109
18289,1023
18399,1023
18408,1109
18433,1193
18474,1270
18530,1337
18597,1393
18674,1434
18758,1459
18823,1466
18866,1466
18931,1459
19015,1434
19092,1393
19159,1337
19214,1270
19256,1193
19281,1109
19289,1023
19399,1023
19408,1109
19433,1193
19474,1270
19530,1337
19597,1393
19674,1434
19758,1459
19823,1466
19866,1466
19931,1459
20015,1434
20092,1393
20159,1337
20214,1270
20256,1193
20281,1109
20289,1023
20399,1023
20408,1109
20433,1193
20474,1270
20530,1337
20597,1393
20674,1434
20758,1459
20823,1466
20866,1466
20931,1459
21015,1434
21092,1393
21159,1337
21214,1270
21256,1193
21281,1109
21289,1023
21399,1023
21408,1109
21433,1193
21474,1270
21530,1337
21597,1393
21674,1434
21758,1459
21823,1466
21866,1466
21931,1459
22015,1434
22092,1393
22159,1337
22214,1270
22256,1193
22281,1109
22289,1023
22399,1023
22408,1109
22433,1193
22474,1270
22530,1337
22597,1393
22674,1434
22758,1459
22823,1466
22866,1466
22931,1459
23015,1434
23092,1393
23159,1337
23214,1270
23256,1193
23281,1109
23289,1023
23281,936
23256,852
23214,775
23159,708
23092,653
23015,611
22931,586
22866,580
22823,580
22758,586
22674,611
22597,653
22530,708
22474,775
22433,852
22408,936
22399,1023
22289,1023
22281,936
22256,852
22214,775
22159,708
22092,653
22015,611
21931,586
21866,580
21823,580
21758,586
21674,611
21597,653
21530,708
21474,775
21433,852
21408,936
21399,1023
21289,1023
21281,936
21256,852
21214,775
21159,708
21092,653
21015,611
20931,586
20866,580
20823,580
20758,586
20674,611
20597,653
20530,708
20474,775
20433,852
20408,936
20399,1023
20289,1023
20281,936
20256,852
20214,775
20159,708
20092,653
20015,611
19931,586
19866,580
19823,580
19758,586
19674,611
19597,653
19530,708
19474,775
19433,852
19408,936
19399,1023
19289,1023
19281,936
19256,852
19214,775
19159,708
19092,653
19015,611
18931,586
18866,580
18823,580
18758,586
18674,611
18597,653
18530,708
18474,775
18433,852
18408,936
18399,1023
18289,1023
18281,936
18256,852
18214,775
18159,708
18092,653
18015,611
17931,586
17866,580
17823,580
17758,586
17674,611
17597,653
17530,708
17474,775
17433,852
17408,936
17399,1023
17289,1023
17281,936
17256,852
17214,775
17159,708
17092,653
17015,611
16931,586
16866,580
16823,580
16758,586
16674,611
16597,653
16530,708
16474,775
16433,852
16408,936
16399,1023
16289,1023
16281,936
16256,852
16214,775
16159,708
16092,653
16015,611
15931,586
15866,580
15823,580
15758,586
15674,611
15597,653
15530,708
15474,775
15433,852
15408,936
15399,1023
15289,1023
15281,936
15256,852
15214,775
15159,708
15092,653
15015,611
14931,586
14866,580
14823,580
14758,586
14674,611
14597,653
14530,708
14474,775
14433,852
14408,936
14399,1023
14289,1023
14281,936
14256,852
14214,775
14159,708
14092,653
14015,611
13931,586
13866,580
13823,580
13758,586
13674,611
13597,653
13530,708
13474,775
13433,852
13408,936
13399,1023
13289,1023
13281,936
13256,852
13214,775
13159,708
13092,653
13015,611
12931,586
12866,580
12823,580
12758,586
12674,611
12597,653
12530,708
12474,775
12433,852
12408,936
12399,1023
12289,1023
12281,936
12256,852
12214,775
12159,708
12092,653
12015,611
11931,586
11866,580
11823,580
11758,586
11674,611
11597,653
11530,708
11474,775
11433,852
11408,936
11399,1023
11289,1023
11281,936
11256,852
11214,775
11159,708
11092,653
11015,611
10931,586
10866,580
10823,580
10758,586
10674,611
10597,653
10530,708
10474,775
10433,852
10408,936
10399,1023
10289,1023
10281,936
10256,852
10214,775
10159,708
10092,653
10015,611
9931,586
9866,580
9823,580
9758,586
9674,611
9597,653
9530,708
9474,775
9433,852
9408,936
9399,1023
9289,1023
9281,936
9256,852
9214,775
9159,708
9092,653
9015,611
8931,586
8866,580
8823,580
8758,586
8674,611
8597,653
8530,708
8474,775
8433,852
8408,936
8399,1023
8289,1023
8281,936
8256,852
8214,775
8159,708
8092,653
8015,611
7931,586
7866,580
7823,580
7758,586
7674,611
7597,653
7530,708
7474,775
7433,852
7408,936
7399,1023
7288,1023
7288,688
7286,667
7280,646
7269,628
7256,611
7239,598
7221,587
7200,581
7179,579
7083,579
7092,570
24018,570
24141,694
24092,653
24015,611
23931,586
23866,580
23823,580
23758,586
23674,611
23597,653
23530,708
23474,775
23433,852
23408,936
23399,1023
23408,1109
23433,1193
23474,1270
23530,1337
23597,1393
23674,1434
23758,1459
23823,1466
23866,1466
23931,1459
24015,1434
24092,1393
24159,1337
24214,1270
24256,1193
24281,1109
24289,1023
24281,936
24256,852
24214,775
24174,726
24297,849
24297,2099
24284,2083
24261,2065
24236,2051
24208,2043
24179,2040
23911,2040
23874,2077
23874,2493
23882,2493
23882,2552
23874,2552
23874,2968
23911,3005
24153,3006
24036,3123
24015,3111
23931,3086
23866,3080
23823,3080
23758,3086
23674,3111
23597,3153
23530,3208
23474,3275
23433,3352
23408,3436
23399,3523
23408,3609
23433,3693
23474,3770
23530,3837
23597,3893
23674,3934
23758,3959
23823,3966
23866,3966
23931,3959
24015,3934
24092,3893
24159,3837
24214,3770
24256,3693
24281,3609
24289,3523
24281,3436
24256,3352
24244,3331
24544,3032
24549,3028
24561,3013
24568,3005
24581,2979
24582,2977
24590,2952
24592,2930
24592,2930
24593,2923
24592,2915
24592,795
24593,788
24592,775
24590,759
24581,731
24574,718
24568,705
24554,688
24549,683
24544,678
24189,323
24184,318
24162,299
24136,286
24108,277
24087,275
24087,275
24079,274
24072,275
7038,275
7031,274
7024,275
7024,275
7002,277
6974,286
6974,286
6949,299
6932,313
6932,313
6926,318
6921,323
6745,500
6739,504
6735,510
6721,527
6711,545
6707,552
6699,579
6510,579
6489,581
6468,587
6449,598
6433,611
6419,628
6409,646
6403,667
6401,688
6029,688
6030,687
6110,535
6219,402
6352,292
6503,210
6667,159
6844,141
6845,141
23839,141
24016,158
Z" /> 
</g>
</g>
<g style="fill:#FFFFFF; fill-opacity:1.0; 
stroke:#FFFFFF; stroke-width:59.0551; stroke-opacity:1; 
stroke-linecap:round; stroke-linejoin:round;">
</g>
<g style="fill:#FFFFFF; fill-opacity:1.0; 
stroke:#FFFFFF; stroke-width:0; stroke-opacity:1; 
stroke-linecap:round; stroke-linejoin:round;">
<circle cx="19081.1" cy="5920.79" r="78.7402" /> 
</g>
<g style="fill:#FFFFFF; fill-opacity:1.0; 
stroke:#FFFFFF; stroke-width:39.3701; stroke-opacity:1; 
stroke-linecap:round; stroke-linejoin:round;">
</g>
<g style="fill:#FFFFFF; fill-opacity:1.0; 
stroke:#FFFFFF; stroke-width:0; stroke-opacity:1; 
stroke-linecap:round; stroke-linejoin:round;">
<circle cx="11844.9" cy="2623.15" r="78.7402" /> 
</g>
<g style="fill:#FFFFFF; fill-opacity:1.0; 
stroke:#FFFFFF; stroke-width:39.3701; stroke-opacity:1; 
stroke-linecap:round; stroke-linejoin:round;">
</g>
<g style="fill:#FFFFFF; fill-opacity:1.0; 
stroke:#FFFFFF; stroke-width:0; stroke-opacity:1; 
stroke-linecap:round; stroke-linejoin:round;">
<circle cx="8608.66" cy="5842.05" r="78.7402" /> 
</g>
<g style="fill:#FFFFFF; fill-opacity:1.0; 
stroke:#FFFFFF; stroke-width:39.3701; stroke-opacity:1; 
stroke-linecap:round; stroke-linejoin:round;">
</g>
<g style="fill:#FFFFFF; fill-opacity:1.0; 
stroke:#FFFFFF; stroke-width:0; stroke-opacity:1; 
stroke-linecap:round; stroke-linejoin:round;">
<circle cx="8136.22" cy="3952.29" r="78.7402" /> 
</g>
<g style="fill:#FFFFFF; fill-opacity:1.0; 
stroke:#FFFFFF; stroke-width:39.3701; stroke-opacity:1; 
stroke-linecap:round; stroke-linejoin:round;">
</g>
<g style="fill:#FFFFFF; fill-opacity:1.0; 
stroke:#FFFFFF; stroke-width:0; stroke-opacity:1; 
stroke-linecap:round; stroke-linejoin:round;">
<circle cx="16482.7" cy="4818.43" r="78.7402" /> 
</g>
<g style="fill:#FFFFFF; fill-opacity:1.0; 
stroke:#FFFFFF; stroke-width:39.3701; stroke-opacity:1; 
stroke-linecap:round; stroke-linejoin:round;">
</g>
<g style="fill:#FFFFFF; fill-opacity:1.0; 
stroke:#FFFFFF; stroke-width:0; stroke-opacity:1; 
stroke-linecap:round; stroke-linejoin:round;">
<circle cx="15616.5" cy="3479.85" r="78.7402" /> 
</g>
<g style="fill:#FFFFFF; fill-opacity:1.0; 
stroke:#FFFFFF; stroke-width:39.3701; stroke-opacity:1; 
stroke-linecap:round; stroke-linejoin:round;">
</g>
<g style="fill:#FFFFFF; fill-opacity:1.0; 
stroke:#FFFFFF; stroke-width:0; stroke-opacity:1; 
stroke-linecap:round; stroke-linejoin:round;">
<circle cx="14199.2" cy="6550.71" r="78.7402" /> 
</g>
<g style="fill:#FFFFFF; fill-opacity:1.0; 
stroke:#FFFFFF; stroke-width:39.3701; stroke-opacity:1; 
stroke-linecap:round; stroke-linejoin:round;">
</g>
<g style="fill:#FFFFFF; fill-opacity:1.0; 
stroke:#FFFFFF; stroke-width:0; stroke-opacity:1; 
stroke-linecap:round; stroke-linejoin:round;">
<circle cx="16344.9" cy="7923.15" r="78.7402" /> 
</g>
<g style="fill:#FFFFFF; fill-opacity:1.0; 
stroke:#FFFFFF; stroke-width:39.3701; stroke-opacity:1; 
stroke-linecap:round; stroke-linejoin:round;">
</g>
<g style="fill:#FFFFFF; fill-opacity:1.0; 
stroke:#FFFFFF; stroke-width:0; stroke-opacity:1; 
stroke-linecap:round; stroke-linejoin:round;">
<circle cx="12144.9" cy="7923.15" r="78.7402" /> 
</g>
<g style="fill:#FFFFFF; fill-opacity:1.0; 
stroke:#FFFFFF; stroke-width:39.3701; stroke-opacity:1; 
stroke-linecap:round; stroke-linejoin:round;">
</g>
<g style="fill:#FFFFFF; fill-opacity:1.0; 
stroke:#FFFFFF; stroke-width:0; stroke-opacity:1; 
stroke-linecap:round; stroke-linejoin:round;">
<circle cx="17344.9" cy="2023.15" r="78.7402" /> 
</g>
<g style="fill:#FFFFFF; fill-opacity:1.0; 
stroke:#FFFFFF; stroke-width:39.3701; stroke-opacity:1; 
stroke-linecap:round; stroke-linejoin:round;">
</g>
<g style="fill:#FFFFFF; fill-opacity:1.0; 
stroke:#FFFFFF; stroke-width:0; stroke-opacity:1; 
stroke-linecap:round; stroke-linejoin:round;">
<circle cx="9396.06" cy="4660.95" r="59.0551" /> 
</g>
<g style="fill:#FFFFFF; fill-opacity:1.0; 
stroke:#FFFFFF; stroke-width:39.3701; stroke-opacity:1; 
stroke-linecap:round; stroke-linejoin:round;">
</g>
<g style="fill:#FFFFFF; fill-opacity:1.0; 
stroke:#FFFFFF; stroke-width:0; stroke-opacity:1; 
stroke-linecap:round; stroke-linejoin:round;">
<circle cx="11244.9" cy="3123.15" r="78.7402" /> 
</g>
<g style="fill:#FFFFFF; fill-opacity:1.0; 
stroke:#FFFFFF; stroke-width:39.3701; stroke-opacity:1; 
stroke-linecap:round; stroke-linejoin:round;">
</g>
<g style="fill:#FFFFFF; fill-opacity:1.0; 
stroke:#FFFFFF; stroke-width:0; stroke-opacity:1; 
stroke-linecap:round; stroke-linejoin:round;">
<circle cx="16944.9" cy="2623.15" r="78.7402" /> 
</g>
<g style="fill:#FFFFFF; fill-opacity:1.0; 
stroke:#FFFFFF; stroke-width:39.3701; stroke-opacity:1; 
stroke-linecap:round; stroke-linejoin:round;">
</g>
<g style="fill:#FFFFFF; fill-opacity:1.0; 
stroke:#FFFFFF; stroke-width:0; stroke-opacity:1; 
stroke-linecap:round; stroke-linejoin:round;">
<circle cx="18144.9" cy="5123.16" r="78.7402" /> 
</g>
<g style="fill:#FFFFFF; fill-opacity:1.0; 
stroke:#FFFFFF; stroke-width:39.3701; stroke-opacity:1; 
stroke-linecap:round; stroke-linejoin:round;">
</g>
<g style="fill:#FFFFFF; fill-opacity:1.0; 
stroke:#FFFFFF; stroke-width:0; stroke-opacity:1; 
stroke-linecap:round; stroke-linejoin:round;">
<circle cx="15444.9" cy="5023.16" r="78.7402" /> 
</g>
<g style="fill:#FFFFFF; fill-opacity:1.0; 
stroke:#FFFFFF; stroke-width:39.3701; stroke-opacity:1; 
stroke-linecap:round; stroke-linejoin:round;">
</g>
<g style="fill:#FFFFFF; fill-opacity:1.0; 
stroke:#FFFFFF; stroke-width:0; stroke-opacity:1; 
stroke-linecap:round; stroke-linejoin:round;">
<circle cx="17844.9" cy="7323.15" r="59.0551" /> 
</g>
<g style="fill:#FFFFFF; fill-opacity:1.0; 
stroke:#FFFFFF; stroke-width:39.3701; stroke-opacity:1; 
stroke-linecap:round; stroke-linejoin:round;">
</g>
<g style="fill:#FFFFFF; fill-opacity:1.0; 
stroke:#FFFFFF; stroke-width:0; stroke-opacity:1; 
stroke-linecap:round; stroke-linejoin:round;">
<circle cx="17344.9" cy="7423.15" r="59.0551" /> 
</g>
<g style="fill:#FFFFFF; fill-opacity:1.0; 
stroke:#FFFFFF; stroke-width:39.3701; stroke-opacity:1; 
stroke-linecap:round; stroke-linejoin:round;">
</g>
<g style="fill:#FFFFFF; fill-opacity:1.0; 
stroke:#FFFFFF; stroke-width:0; stroke-opacity:1; 
stroke-linecap:round; stroke-linejoin:round;">
<circle cx="16444.9" cy="5723.16" r="59.0551" /> 
</g>
<g style="fill:#FFFFFF; fill-opacity:1.0; 
stroke:#FFFFFF; stroke-width:39.3701; stroke-opacity:1; 
stroke-linecap:round; stroke-linejoin:round;">
</g>
<g style="fill:#FFFFFF; fill-opacity:1.0; 
stroke:#FFFFFF; stroke-width:0; stroke-opacity:1; 
stroke-linecap:round; stroke-linejoin:round;">
<circle cx="23844.9" cy="7523.15" r="196.85" /> 
</g>
<g style="fill:#FFFFFF; fill-opacity:1.0; 
stroke:#FFFFFF; stroke-width:39.3701; stroke-opacity:1; 
stroke-linecap:round; stroke-linejoin:round;">
</g>
<g style="fill:#FFFFFF; fill-opacity:1.0; 
stroke:#FFFFFF; stroke-width:0; stroke-opacity:1; 
stroke-linecap:round; stroke-linejoin:round;">
<circle cx="23844.9" cy="6523.15" r="196.85" /> 
</g>
<g style="fill:#FFFFFF; fill-opacity:1.0; 
stroke:#FFFFFF; stroke-width:39.3701; stroke-opacity:1; 
stroke-linecap:round; stroke-linejoin:round;">
</g>
<g style="fill:#FFFFFF; fill-opacity:1.0; 
stroke:#FFFFFF; stroke-width:0; stroke-opacity:1; 
stroke-linecap:round; stroke-linejoin:round;">
<circle cx="23844.9" cy="5523.15" r="196.85" /> 
</g>
<g style="fill:#FFFFFF; fill-opacity:1.0; 
stroke:#FFFFFF; stroke-width:39.3701; stroke-opacity:1; 
stroke-linecap:round; stroke-linejoin:round;">
</g>
<g style="fill:#FFFFFF; fill-opacity:1.0; 
stroke:#FFFFFF; stroke-width:0; stroke-opacity:1; 
stroke-linecap:round; stroke-linejoin:round;">
<circle cx="23844.9" cy="4523.15" r="196.85" /> 
</g>
<g style="fill:#FFFFFF; fill-opacity:1.0; 
stroke:#FFFFFF; stroke-width:39.3701; stroke-opacity:1; 
stroke-linecap:round; stroke-linejoin:round;">
</g>
<g style="fill:#FFFFFF; fill-opacity:1.0; 
stroke:#FFFFFF; stroke-width:0; stroke-opacity:1; 
stroke-linecap:round; stroke-linejoin:round;">
<circle cx="23844.9" cy="3523.15" r="196.85" /> 
</g>
<g style="fill:#FFFFFF; fill-opacity:1.0; 
stroke:#FFFFFF; stroke-width:39.3701; stroke-opacity:1; 
stroke-linecap:round; stroke-linejoin:round;">
</g>
<g style="fill:#FFFFFF; fill-opacity:1.0; 
stroke:#FFFFFF; stroke-width:0; stroke-opacity:1; 
stroke-linecap:round; stroke-linejoin:round;">
<circle cx="23844.9" cy="2523.15" r="196.85" /> 
</g>
<g style="fill:#FFFFFF; fill-opacity:1.0; 
stroke:#FFFFFF; stroke-width:39.3701; stroke-opacity:1; 
stroke-linecap:round; stroke-linejoin:round;">
</g>
<g style="fill:#FFFFFF; fill-opacity:1.0; 
stroke:#FFFFFF; stroke-width:0; stroke-opacity:1; 
stroke-linecap:round; stroke-linejoin:round;">
<circle cx="23844.9" cy="9023.15" r="196.85" /> 
</g>
<g style="fill:#FFFFFF; fill-opacity:1.0; 
stroke:#FFFFFF; stroke-width:39.3701; stroke-opacity:1; 
stroke-linecap:round; stroke-linejoin:round;">
</g>
<g style="fill:#FFFFFF; fill-opacity:1.0; 
stroke:#FFFFFF; stroke-width:0; stroke-opacity:1; 
stroke-linecap:round; stroke-linejoin:round;">
<circle cx="22844.9" cy="9023.15" r="196.85" /> 
</g>
<g style="fill:#FFFFFF; fill-opacity:1.0; 
stroke:#FFFFFF; stroke-width:39.3701; stroke-opacity:1; 
stroke-linecap:round; stroke-linejoin:round;">
</g>
<g style="fill:#FFFFFF; fill-opacity:1.0; 
stroke:#FFFFFF; stroke-width:0; stroke-opacity:1; 
stroke-linecap:round; stroke-linejoin:round;">
<circle cx="21844.9" cy="9023.15" r="196.85" /> 
</g>
<g style="fill:#FFFFFF; fill-opacity:1.0; 
stroke:#FFFFFF; stroke-width:39.3701; stroke-opacity:1; 
stroke-linecap:round; stroke-linejoin:round;">
</g>
<g style="fill:#FFFFFF; fill-opacity:1.0; 
stroke:#FFFFFF; stroke-width:0; stroke-opacity:1; 
stroke-linecap:round; stroke-linejoin:round;">
<circle cx="20844.9" cy="9023.15" r="196.85" /> 
</g>
<g style="fill:#FFFFFF; fill-opacity:1.0; 
stroke:#FFFFFF; stroke-width:39.3701; stroke-opacity:1; 
stroke-linecap:round; stroke-linejoin:round;">
</g>
<g style="fill:#FFFFFF; fill-opacity:1.0; 
stroke:#FFFFFF; stroke-width:0; stroke-opacity:1; 
stroke-linecap:round; stroke-linejoin:round;">
<circle cx="19844.9" cy="9023.15" r="196.85" /> 
</g>
<g style="fill:#FFFFFF; fill-opacity:1.0; 
stroke:#FFFFFF; stroke-width:39.3701; stroke-opacity:1; 
stroke-linecap:round; stroke-linejoin:round;">
</g>
<g style="fill:#FFFFFF; fill-opacity:1.0; 
stroke:#FFFFFF; stroke-width:0; stroke-opacity:1; 
stroke-linecap:round; stroke-linejoin:round;">
<circle cx="18844.9" cy="9023.15" r="196.85" /> 
</g>
<g style="fill:#FFFFFF; fill-opacity:1.0; 
stroke:#FFFFFF; stroke-width:39.3701; stroke-opacity:1; 
stroke-linecap:round; stroke-linejoin:round;">
</g>
<g style="fill:#FFFFFF; fill-opacity:1.0; 
stroke:#FFFFFF; stroke-width:0; stroke-opacity:1; 
stroke-linecap:round; stroke-linejoin:round;">
<circle cx="17844.9" cy="9023.15" r="196.85" /> 
</g>
<g style="fill:#FFFFFF; fill-opacity:1.0; 
stroke:#FFFFFF; stroke-width:39.3701; stroke-opacity:1; 
stroke-linecap:round; stroke-linejoin:round;">
</g>
<g style="fill:#FFFFFF; fill-opacity:1.0; 
stroke:#FFFFFF; stroke-width:0; stroke-opacity:1; 
stroke-linecap:round; stroke-linejoin:round;">
<circle cx="16844.9" cy="9023.15" r="196.85" /> 
</g>
<g style="fill:#FFFFFF; fill-opacity:1.0; 
stroke:#FFFFFF; stroke-width:39.3701; stroke-opacity:1; 
stroke-linecap:round; stroke-linejoin:round;">
</g>
<g style="fill:#FFFFFF; fill-opacity:1.0; 
stroke:#FFFFFF; stroke-width:0; stroke-opacity:1; 
stroke-linecap:round; stroke-linejoin:round;">
<circle cx="15844.9" cy="9023.15" r="196.85" /> 
</g>
<g style="fill:#FFFFFF; fill-opacity:1.0; 
stroke:#FFFFFF; stroke-width:39.3701; stroke-opacity:1; 
stroke-linecap:round; stroke-linejoin:round;">
</g>
<g style="fill:#FFFFFF; fill-opacity:1.0; 
stroke:#FFFFFF; stroke-width:0; stroke-opacity:1; 
stroke-linecap:round; stroke-linejoin:round;">
<circle cx="14844.9" cy="9023.15" r="196.85" /> 
</g>
<g style="fill:#FFFFFF; fill-opacity:1.0; 
stroke:#FFFFFF; stroke-width:39.3701; stroke-opacity:1; 
stroke-linecap:round; stroke-linejoin:round;">
</g>
<g style="fill:#FFFFFF; fill-opacity:1.0; 
stroke:#FFFFFF; stroke-width:0; stroke-opacity:1; 
stroke-linecap:round; stroke-linejoin:round;">
<circle cx="13844.9" cy="9023.15" r="196.85" /> 
</g>
<g style="fill:#FFFFFF; fill-opacity:1.0; 
stroke:#FFFFFF; stroke-width:39.3701; stroke-opacity:1; 
stroke-linecap:round; stroke-linejoin:round;">
</g>
<g style="fill:#FFFFFF; fill-opacity:1.0; 
stroke:#FFFFFF; stroke-width:0; stroke-opacity:1; 
stroke-linecap:round; stroke-linejoin:round;">
<circle cx="12844.9" cy="9023.15" r="196.85" /> 
</g>
<g style="fill:#FFFFFF; fill-opacity:1.0; 
stroke:#FFFFFF; stroke-width:39.3701; stroke-opacity:1; 
stroke-linecap:round; stroke-linejoin:round;">
</g>
<g style="fill:#FFFFFF; fill-opacity:1.0; 
stroke:#FFFFFF; stroke-width:0; stroke-opacity:1; 
stroke-linecap:round; stroke-linejoin:round;">
<circle cx="11844.9" cy="9023.15" r="196.85" /> 
</g>
<g style="fill:#FFFFFF; fill-opacity:1.0; 
stroke:#FFFFFF; stroke-width:39.3701; stroke-opacity:1; 
stroke-linecap:round; stroke-linejoin:round;">
</g>
<g style="fill:#FFFFFF; fill-opacity:1.0; 
stroke:#FFFFFF; stroke-width:0; stroke-opacity:1; 
stroke-linecap:round; stroke-linejoin:round;">
<circle cx="10844.9" cy="9023.15" r="196.85" /> 
</g>
<g style="fill:#FFFFFF; fill-opacity:1.0; 
stroke:#FFFFFF; stroke-width:39.3701; stroke-opacity:1; 
stroke-linecap:round; stroke-linejoin:round;">
</g>
<g style="fill:#FFFFFF; fill-opacity:1.0; 
stroke:#FFFFFF; stroke-width:0; stroke-opacity:1; 
stroke-linecap:round; stroke-linejoin:round;">
<circle cx="9844.88" cy="9023.15" r="196.85" /> 
</g>
<g style="fill:#FFFFFF; fill-opacity:1.0; 
stroke:#FFFFFF; stroke-width:39.3701; stroke-opacity:1; 
stroke-linecap:round; stroke-linejoin:round;">
</g>
<g style="fill:#FFFFFF; fill-opacity:1.0; 
stroke:#FFFFFF; stroke-width:0; stroke-opacity:1; 
stroke-linecap:round; stroke-linejoin:round;">
<circle cx="8844.88" cy="9023.15" r="196.85" /> 
</g>
<g style="fill:#FFFFFF; fill-opacity:1.0; 
stroke:#FFFFFF; stroke-width:39.3701; stroke-opacity:1; 
stroke-linecap:round; stroke-linejoin:round;">
</g>
<g style="fill:#FFFFFF; fill-opacity:1.0; 
stroke:#FFFFFF; stroke-width:0; stroke-opacity:1; 
stroke-linecap:round; stroke-linejoin:round;">
<circle cx="7844.88" cy="9023.15" r="196.85" /> 
</g>
<g style="fill:#FFFFFF; fill-opacity:1.0; 
stroke:#FFFFFF; stroke-width:39.3701; stroke-opacity:1; 
stroke-linecap:round; stroke-linejoin:round;">
</g>
<g style="fill:#FFFFFF; fill-opacity:1.0; 
stroke:#FFFFFF; stroke-width:0; stroke-opacity:1; 
stroke-linecap:round; stroke-linejoin:round;">
<circle cx="6844.88" cy="9023.15" r="196.85" /> 
</g>
<g style="fill:#FFFFFF; fill-opacity:1.0; 
stroke:#FFFFFF; stroke-width:39.3701; stroke-opacity:1; 
stroke-linecap:round; stroke-linejoin:round;">
</g>
<g style="fill:#FFFFFF; fill-opacity:1.0; 
stroke:#FFFFFF; stroke-width:0; stroke-opacity:1; 
stroke-linecap:round; stroke-linejoin:round;">
<circle cx="23844.9" cy="1023.15" r="196.85" /> 
</g>
<g style="fill:#FFFFFF; fill-opacity:1.0; 
stroke:#FFFFFF; stroke-width:39.3701; stroke-opacity:1; 
stroke-linecap:round; stroke-linejoin:round;">
</g>
<g style="fill:#FFFFFF; fill-opacity:1.0; 
stroke:#FFFFFF; stroke-width:0; stroke-opacity:1; 
stroke-linecap:round; stroke-linejoin:round;">
<circle cx="22844.9" cy="1023.15" r="196.85" /> 
</g>
<g style="fill:#FFFFFF; fill-opacity:1.0; 
stroke:#FFFFFF; stroke-width:39.3701; stroke-opacity:1; 
stroke-linecap:round; stroke-linejoin:round;">
</g>
<g style="fill:#FFFFFF; fill-opacity:1.0; 
stroke:#FFFFFF; stroke-width:0; stroke-opacity:1; 
stroke-linecap:round; stroke-linejoin:round;">
<circle cx="21844.9" cy="1023.15" r="196.85" /> 
</g>
<g style="fill:#FFFFFF; fill-opacity:1.0; 
stroke:#FFFFFF; stroke-width:39.3701; stroke-opacity:1; 
stroke-linecap:round; stroke-linejoin:round;">
</g>
<g style="fill:#FFFFFF; fill-opacity:1.0; 
stroke:#FFFFFF; stroke-width:0; stroke-opacity:1; 
stroke-linecap:round; stroke-linejoin:round;">
<circle cx="20844.9" cy="1023.15" r="196.85" /> 
</g>
<g style="fill:#FFFFFF; fill-opacity:1.0; 
stroke:#FFFFFF; stroke-width:39.3701; stroke-opacity:1; 
stroke-linecap:round; stroke-linejoin:round;">
</g>
<g style="fill:#FFFFFF; fill-opacity:1.0; 
stroke:#FFFFFF; stroke-width:0; stroke-opacity:1; 
stroke-linecap:round; stroke-linejoin:round;">
<circle cx="19844.9" cy="1023.15" r="196.85" /> 
</g>
<g style="fill:#FFFFFF; fill-opacity:1.0; 
stroke:#FFFFFF; stroke-width:39.3701; stroke-opacity:1; 
stroke-linecap:round; stroke-linejoin:round;">
</g>
<g style="fill:#FFFFFF; fill-opacity:1.0; 
stroke:#FFFFFF; stroke-width:0; stroke-opacity:1; 
stroke-linecap:round; stroke-linejoin:round;">
<circle cx="18844.9" cy="1023.15" r="196.85" /> 
</g>
<g style="fill:#FFFFFF; fill-opacity:1.0; 
stroke:#FFFFFF; stroke-width:39.3701; stroke-opacity:1; 
stroke-linecap:round; stroke-linejoin:round;">
</g>
<g style="fill:#FFFFFF; fill-opacity:1.0; 
stroke:#FFFFFF; stroke-width:0; stroke-opacity:1; 
stroke-linecap:round; stroke-linejoin:round;">
<circle cx="17844.9" cy="1023.15" r="196.85" /> 
</g>
<g style="fill:#FFFFFF; fill-opacity:1.0; 
stroke:#FFFFFF; stroke-width:39.3701; stroke-opacity:1; 
stroke-linecap:round; stroke-linejoin:round;">
</g>
<g style="fill:#FFFFFF; fill-opacity:1.0; 
stroke:#FFFFFF; stroke-width:0; stroke-opacity:1; 
stroke-linecap:round; stroke-linejoin:round;">
<circle cx="16844.9" cy="1023.15" r="196.85" /> 
</g>
<g style="fill:#FFFFFF; fill-opacity:1.0; 
stroke:#FFFFFF; stroke-width:39.3701; stroke-opacity:1; 
stroke-linecap:round; stroke-linejoin:round;">
</g>
<g style="fill:#FFFFFF; fill-opacity:1.0; 
stroke:#FFFFFF; stroke-width:0; stroke-opacity:1; 
stroke-linecap:round; stroke-linejoin:round;">
<circle cx="15844.9" cy="1023.15" r="196.85" /> 
</g>
<g style="fill:#FFFFFF; fill-opacity:1.0; 
stroke:#FFFFFF; stroke-width:39.3701; stroke-opacity:1; 
stroke-linecap:round; stroke-linejoin:round;">
</g>
<g style="fill:#FFFFFF; fill-opacity:1.0; 
stroke:#FFFFFF; stroke-width:0; stroke-opacity:1; 
stroke-linecap:round; stroke-linejoin:round;">
<circle cx="14844.9" cy="1023.15" r="196.85" /> 
</g>
<g style="fill:#FFFFFF; fill-opacity:1.0; 
stroke:#FFFFFF; stroke-width:39.3701; stroke-opacity:1; 
stroke-linecap:round; stroke-linejoin:round;">
</g>
<g style="fill:#FFFFFF; fill-opacity:1.0; 
stroke:#FFFFFF; stroke-width:0; stroke-opacity:1; 
stroke-linecap:round; stroke-linejoin:round;">
<circle cx="13844.9" cy="1023.15" r="196.85" /> 
</g>
<g style="fill:#FFFFFF; fill-opacity:1.0; 
stroke:#FFFFFF; stroke-width:39.3701; stroke-opacity:1; 
stroke-linecap:round; stroke-linejoin:round;">
</g>
<g style="fill:#FFFFFF; fill-opacity:1.0; 
stroke:#FFFFFF; stroke-width:0; stroke-opacity:1; 
stroke-linecap:round; stroke-linejoin:round;">
<circle cx="12844.9" cy="1023.15" r="196.85" /> 
</g>
<g style="fill:#FFFFFF; fill-opacity:1.0; 
stroke:#FFFFFF; stroke-width:39.3701; stroke-opacity:1; 
stroke-linecap:round; stroke-linejoin:round;">
</g>
<g style="fill:#FFFFFF; fill-opacity:1.0; 
stroke:#FFFFFF; stroke-width:0; stroke-opacity:1; 
stroke-linecap:round; stroke-linejoin:round;">
<circle cx="11844.9" cy="1023.15" r="196.85" /> 
</g>
<g style="fill:#FFFFFF; fill-opacity:1.0; 
stroke:#FFFFFF; stroke-width:39.3701; stroke-opacity:1; 
stroke-linecap:round; stroke-linejoin:round;">
</g>
<g style="fill:#FFFFFF; fill-opacity:1.0; 
stroke:#FFFFFF; stroke-width:0; stroke-opacity:1; 
stroke-linecap:round; stroke-linejoin:round;">
<circle cx="10844.9" cy="1023.15" r="196.85" /> 
</g>
<g style="fill:#FFFFFF; fill-opacity:1.0; 
stroke:#FFFFFF; stroke-width:39.3701; stroke-opacity:1; 
stroke-linecap:round; stroke-linejoin:round;">
</g>
<g style="fill:#FFFFFF; fill-opacity:1.0; 
stroke:#FFFFFF; stroke-width:0; stroke-opacity:1; 
stroke-linecap:round; stroke-linejoin:round;">
<circle cx="9844.88" cy="1023.15" r="196.85" /> 
</g>
<g style="fill:#FFFFFF; fill-opacity:1.0; 
stroke:#FFFFFF; stroke-width:39.3701; stroke-opacity:1; 
stroke-linecap:round; stroke-linejoin:round;">
</g>
<g style="fill:#FFFFFF; fill-opacity:1.0; 
stroke:#FFFFFF; stroke-width:0; stroke-opacity:1; 
stroke-linecap:round; stroke-linejoin:round;">
<circle cx="8844.88" cy="1023.15" r="196.85" /> 
</g>
<g style="fill:#FFFFFF; fill-opacity:1.0; 
stroke:#FFFFFF; stroke-width:39.3701; stroke-opacity:1; 
stroke-linecap:round; stroke-linejoin:round;">
</g>
<g style="fill:#FFFFFF; fill-opacity:1.0; 
stroke:#FFFFFF; stroke-width:0; stroke-opacity:1; 
stroke-linecap:round; stroke-linejoin:round;">
<circle cx="7844.88" cy="1023.15" r="196.85" /> 
</g>
<g style="fill:#FFFFFF; fill-opacity:1.0; 
stroke:#FFFFFF; stroke-width:39.3701; stroke-opacity:1; 
stroke-linecap:round; stroke-linejoin:round;">
</g>
<g style="fill:#FFFFFF; fill-opacity:1.0; 
stroke:#FFFFFF; stroke-width:0; stroke-opacity:1; 
stroke-linecap:round; stroke-linejoin:round;">
<circle cx="6844.88" cy="1023.15" r="196.85" /> 
</g>
<g style="fill:#FFFFFF; fill-opacity:1.0; 
stroke:#FFFFFF; stroke-width:39.3701; stroke-opacity:1; 
stroke-linecap:round; stroke-linejoin:round;">
</g>
<g style="fill:#000000; fill-opacity:1.0; 
stroke:#000000; stroke-width:39.3701; stroke-opacity:1; 
stroke-linecap:round; stroke-linejoin:round;">
<g >
</g>
<g >
</g>
<g >
</g>
<g >
</g>
<g >
</g>
<g >
</g>
<g >
</g>
<g >
</g>
<g >
</g>
<g >
</g>
<g >
</g>
</g>
<g style="fill:#000000; fill-opacity:1.0; 
stroke:#000000; stroke-width:39.3701; stroke-opacity:1; 
stroke-linecap:round; stroke-linejoin:round;">
</g>
<g style="fill:#C2C200; fill-opacity:1.0; 
stroke:#C2C200; stroke-width:39.3701; stroke-opacity:1; 
stroke-linecap:round; stroke-linejoin:round;">
</g>
<g style="fill:#C2C200; fill-opacity:0.0; 
stroke:#C2C200; stroke-width:59.0551; stroke-opacity:1; 
stroke-linecap:round; stroke-linejoin:round;">
<path d="M24844.9 1023.15 A1000 1000 0.0 0 0 23844.9 23.1535 " />
<path d="M23844.9 10023.2 A1000 1000 0.0 0 0 24844.9 9023.15 " />
<path d="M5844.88 9023.15 A1000 1000 0.0 0 0 6844.88 10023.2 " />
<path d="M6844.88 23.1535 A1000 1000 0.0 0 0 5844.88 1023.15 " />
<path d="M5844 9023
L5844 1023
" />
<path d="M23844 10023
L6844 10023
" />
<path d="M24844 1023
L24844 9023
" />
<path d="M6844 23
L23844 23
" />
<g >
</g>
<g >
</g>
<g >
</g>
<g >
</g>
<g >
</g>
<g >
</g>
<g >
</g>
<g >
</g>
<g >
</g>
<g >
</g>
<g >
</g>
</g> 
</svg>
